<?xml version="1.0" encoding="UTF-8" standalone="no"?>
<!DOCTYPE svg PUBLIC "-//W3C//DTD SVG 1.1//EN"
 "http://www.w3.org/Graphics/SVG/1.1/DTD/svg11.dtd">
<!-- Generated by graphviz version 15.1.0 (0)
 -->
<!-- Title: hify_er Pages: 1 -->
<svg width="1635pt" height="507pt"
 viewBox="0.00 0.00 1635.00 507.00" xmlns="http://www.w3.org/2000/svg" xmlns:xlink="http://www.w3.org/1999/xlink">
<g id="graph0" class="graph" transform="scale(1 1) rotate(0) translate(4 503)">
<title>hify_er</title>
<polygon fill="white" stroke="none" points="-4,4 -4,-503 1630.91,-503 1630.91,4 -4,4"/>
<g id="clust1" class="cluster">
<title>cluster_identity</title>
<path fill="none" stroke="#9bb7d4" d="M241.89,-249C241.89,-249 304.02,-249 304.02,-249 310.02,-249 316.02,-255 316.02,-261 316.02,-261 316.02,-314 316.02,-314 316.02,-320 310.02,-326 304.02,-326 304.02,-326 241.89,-326 241.89,-326 235.89,-326 229.89,-320 229.89,-314 229.89,-314 229.89,-261 229.89,-261 229.89,-255 235.89,-249 241.89,-249"/>
<text xml:space="preserve" text-anchor="middle" x="272.96" y="-309.4" font-family="sans-serif" font-size="14.00">identity</text>
</g>
<g id="clust2" class="cluster">
<title>cluster_provider</title>
<path fill="none" stroke="#9bb7d4" d="M620.29,-104C620.29,-104 947.95,-104 947.95,-104 953.95,-104 959.95,-110 959.95,-116 959.95,-116 959.95,-174 959.95,-174 959.95,-180 953.95,-186 947.95,-186 947.95,-186 620.29,-186 620.29,-186 614.29,-186 608.29,-180 608.29,-174 608.29,-174 608.29,-116 608.29,-116 608.29,-110 614.29,-104 620.29,-104"/>
<text xml:space="preserve" text-anchor="middle" x="784.12" y="-169.4" font-family="sans-serif" font-size="14.00">provider</text>
</g>
<g id="clust3" class="cluster">
<title>cluster_app</title>
<path fill="none" stroke="#88b04b" d="M646.01,-194C646.01,-194 963.27,-194 963.27,-194 969.27,-194 975.27,-200 975.27,-206 975.27,-206 975.27,-389 975.27,-389 975.27,-395 969.27,-401 963.27,-401 963.27,-401 646.01,-401 646.01,-401 640.01,-401 634.01,-395 634.01,-389 634.01,-389 634.01,-206 634.01,-206 634.01,-200 640.01,-194 646.01,-194"/>
<text xml:space="preserve" text-anchor="middle" x="804.64" y="-384.4" font-family="sans-serif" font-size="14.00">app</text>
</g>
<g id="clust4" class="cluster">
<title>cluster_conversation</title>
<path fill="none" stroke="#e0a96d" d="M430.96,-409C430.96,-409 699.74,-409 699.74,-409 705.74,-409 711.74,-415 711.74,-421 711.74,-421 711.74,-479 711.74,-479 711.74,-485 705.74,-491 699.74,-491 699.74,-491 430.96,-491 430.96,-491 424.96,-491 418.96,-485 418.96,-479 418.96,-479 418.96,-421 418.96,-421 418.96,-415 424.96,-409 430.96,-409"/>
<text xml:space="preserve" text-anchor="middle" x="565.35" y="-474.4" font-family="sans-serif" font-size="14.00">conversation</text>
</g>
<g id="clust5" class="cluster">
<title>cluster_knowledge</title>
<path fill="none" stroke="#88b04b" d="M1101.48,-317C1101.48,-317 1606.91,-317 1606.91,-317 1612.91,-317 1618.91,-323 1618.91,-329 1618.91,-329 1618.91,-389 1618.91,-389 1618.91,-395 1612.91,-401 1606.91,-401 1606.91,-401 1101.48,-401 1101.48,-401 1095.48,-401 1089.48,-395 1089.48,-389 1089.48,-389 1089.48,-329 1089.48,-329 1089.48,-323 1095.48,-317 1101.48,-317"/>
<text xml:space="preserve" text-anchor="middle" x="1354.19" y="-384.4" font-family="sans-serif" font-size="14.00">knowledge</text>
</g>
<g id="clust6" class="cluster">
<title>cluster_workflow</title>
<path fill="none" stroke="#d98a8a" d="M870.83,-409C870.83,-409 1387.05,-409 1387.05,-409 1393.05,-409 1399.05,-415 1399.05,-421 1399.05,-421 1399.05,-479 1399.05,-479 1399.05,-485 1393.05,-491 1387.05,-491 1387.05,-491 870.83,-491 870.83,-491 864.83,-491 858.83,-485 858.83,-479 858.83,-479 858.83,-421 858.83,-421 858.83,-415 864.83,-409 870.83,-409"/>
<text xml:space="preserve" text-anchor="middle" x="1128.94" y="-474.4" font-family="sans-serif" font-size="14.00">workflow</text>
</g>
<g id="clust7" class="cluster">
<title>cluster_tool</title>
<path fill="none" stroke="#9bb7d4" d="M1105.54,-232C1105.54,-232 1151.54,-232 1151.54,-232 1157.54,-232 1163.54,-238 1163.54,-244 1163.54,-244 1163.54,-297 1163.54,-297 1163.54,-303 1157.54,-309 1151.54,-309 1151.54,-309 1105.54,-309 1105.54,-309 1099.54,-309 1093.54,-303 1093.54,-297 1093.54,-297 1093.54,-244 1093.54,-244 1093.54,-238 1099.54,-232 1105.54,-232"/>
<text xml:space="preserve" text-anchor="middle" x="1128.54" y="-292.4" font-family="sans-serif" font-size="14.00">tool</text>
</g>
<g id="clust8" class="cluster">
<title>cluster_usage</title>
<path fill="none" stroke="#b0a8c9" d="M20,-94C20,-94 132.45,-94 132.45,-94 138.45,-94 144.45,-100 144.45,-106 144.45,-106 144.45,-231 144.45,-231 144.45,-237 138.45,-243 132.45,-243 132.45,-243 20,-243 20,-243 14,-243 8,-237 8,-231 8,-231 8,-106 8,-106 8,-100 14,-94 20,-94"/>
<text xml:space="preserve" text-anchor="middle" x="76.23" y="-226.4" font-family="sans-serif" font-size="14.00">usage</text>
</g>
<g id="clust9" class="cluster">
<title>cluster_system</title>
<path fill="none" stroke="#cccccc" d="M30.16,-332C30.16,-332 122.29,-332 122.29,-332 128.29,-332 134.29,-338 134.29,-344 134.29,-344 134.29,-397 134.29,-397 134.29,-403 128.29,-409 122.29,-409 122.29,-409 30.16,-409 30.16,-409 24.16,-409 18.16,-403 18.16,-397 18.16,-397 18.16,-344 18.16,-344 18.16,-338 24.16,-332 30.16,-332"/>
<text xml:space="preserve" text-anchor="middle" x="76.23" y="-392.4" font-family="sans-serif" font-size="14.00">system</text>
</g>
<!-- sys_user -->
<g id="node1" class="node">
<title>sys_user</title>
<path fill="#f5f8fc" stroke="black" d="M296.02,-293C296.02,-293 249.89,-293 249.89,-293 243.89,-293 237.89,-287 237.89,-281 237.89,-281 237.89,-269 237.89,-269 237.89,-263 243.89,-257 249.89,-257 249.89,-257 296.02,-257 296.02,-257 302.02,-257 308.02,-263 308.02,-269 308.02,-269 308.02,-281 308.02,-281 308.02,-287 302.02,-293 296.02,-293"/>
<text xml:space="preserve" text-anchor="middle" x="272.96" y="-271.4" font-family="monospace" font-size="12.00">sys_user</text>
</g>
<!-- conversation -->
<g id="node8" class="node">
<title>conversation</title>
<path fill="#f5f8fc" stroke="black" d="M505.07,-453C505.07,-453 438.96,-453 438.96,-453 432.96,-453 426.96,-447 426.96,-441 426.96,-441 426.96,-429 426.96,-429 426.96,-423 432.96,-417 438.96,-417 438.96,-417 505.07,-417 505.07,-417 511.07,-417 517.07,-423 517.07,-429 517.07,-429 517.07,-441 517.07,-441 517.07,-447 511.07,-453 505.07,-453"/>
<text xml:space="preserve" text-anchor="middle" x="472.02" y="-431.4" font-family="monospace" font-size="12.00">conversation</text>
</g>
<!-- sys_user&#45;&gt;conversation -->
<g id="edge16" class="edge">
<title>sys_user&#45;&gt;conversation</title>
<path fill="none" stroke="#888888" stroke-dasharray="5,2" d="M305.35,-300.49C345.25,-332.89 413.18,-388.04 448.37,-416.61"/>
<polygon fill="#888888" stroke="#888888" points="307.71,-297.89 297.74,-294.31 303.29,-303.33 307.71,-297.89"/>
<text xml:space="preserve" text-anchor="middle" x="367.49" y="-372.33" font-family="sans-serif" font-size="10.00" fill="#888888">1:N user_id</text>
</g>
<!-- model_provider -->
<g id="node2" class="node">
<title>model_provider</title>
<path fill="#f5f8fc" stroke="black" d="M709.74,-153C709.74,-153 628.29,-153 628.29,-153 622.29,-153 616.29,-147 616.29,-141 616.29,-141 616.29,-129 616.29,-129 616.29,-123 622.29,-117 628.29,-117 628.29,-117 709.74,-117 709.74,-117 715.74,-117 721.74,-123 721.74,-129 721.74,-129 721.74,-141 721.74,-141 721.74,-147 715.74,-153 709.74,-153"/>
<text xml:space="preserve" text-anchor="middle" x="669.01" y="-131.4" font-family="monospace" font-size="12.00">model_provider</text>
</g>
<!-- ai_model -->
<g id="node3" class="node">
<title>ai_model</title>
<path fill="#f5f8fc" stroke="black" d="M939.95,-150C939.95,-150 890.49,-150 890.49,-150 884.49,-150 878.49,-144 878.49,-138 878.49,-138 878.49,-126 878.49,-126 878.49,-120 884.49,-114 890.49,-114 890.49,-114 939.95,-114 939.95,-114 945.95,-114 951.95,-120 951.95,-126 951.95,-126 951.95,-138 951.95,-138 951.95,-144 945.95,-150 939.95,-150"/>
<text xml:space="preserve" text-anchor="middle" x="915.22" y="-128.4" font-family="monospace" font-size="12.00">ai_model</text>
</g>
<!-- model_provider&#45;&gt;ai_model -->
<g id="edge1" class="edge">
<title>model_provider&#45;&gt;ai_model</title>
<path fill="none" stroke="#555555" d="M722.1,-134.36C764.9,-133.83 825.04,-133.1 866.58,-132.59"/>
<polygon fill="#555555" stroke="#555555" points="866.57,-136.09 876.53,-132.46 866.48,-129.09 866.57,-136.09"/>
<text xml:space="preserve" text-anchor="middle" x="792.45" y="-136.86" font-family="sans-serif" font-size="10.00">1:N</text>
</g>
<!-- app -->
<g id="node4" class="node">
<title>app</title>
<path fill="#f5f8fc" stroke="black" d="M684.01,-303C684.01,-303 654.01,-303 654.01,-303 648.01,-303 642.01,-297 642.01,-291 642.01,-291 642.01,-279 642.01,-279 642.01,-273 648.01,-267 654.01,-267 654.01,-267 684.01,-267 684.01,-267 690.01,-267 696.01,-273 696.01,-279 696.01,-279 696.01,-291 696.01,-291 696.01,-297 690.01,-303 684.01,-303"/>
<text xml:space="preserve" text-anchor="middle" x="669.01" y="-281.4" font-family="monospace" font-size="12.00">app</text>
</g>
<!-- app&#45;&gt;ai_model -->
<g id="edge10" class="edge">
<title>app&#45;&gt;ai_model</title>
<path fill="none" stroke="#888888" stroke-dasharray="5,2" d="M696.27,-266.83C713.58,-254.98 736.83,-239.3 757.74,-226 796.22,-201.52 840.9,-174.86 872.63,-156.2"/>
<polygon fill="#888888" stroke="#888888" points="874.3,-159.28 881.15,-151.2 870.76,-153.24 874.3,-159.28"/>
<text xml:space="preserve" text-anchor="middle" x="792.45" y="-229" font-family="sans-serif" font-size="10.00" fill="#888888">model_id</text>
</g>
<!-- app_api_key -->
<g id="node5" class="node">
<title>app_api_key</title>
<path fill="#f5f8fc" stroke="black" d="M948.28,-238C948.28,-238 882.16,-238 882.16,-238 876.16,-238 870.16,-232 870.16,-226 870.16,-226 870.16,-214 870.16,-214 870.16,-208 876.16,-202 882.16,-202 882.16,-202 948.28,-202 948.28,-202 954.28,-202 960.28,-208 960.28,-214 960.28,-214 960.28,-226 960.28,-226 960.28,-232 954.28,-238 948.28,-238"/>
<text xml:space="preserve" text-anchor="middle" x="915.22" y="-216.4" font-family="monospace" font-size="12.00">app_api_key</text>
</g>
<!-- app&#45;&gt;app_api_key -->
<g id="edge2" class="edge">
<title>app&#45;&gt;app_api_key</title>
<path fill="none" stroke="#555555" d="M696.15,-278.04C734.78,-267.76 808.03,-248.26 858.92,-234.72"/>
<polygon fill="#555555" stroke="#555555" points="859.51,-238.18 868.28,-232.23 857.71,-231.42 859.51,-238.18"/>
<text xml:space="preserve" text-anchor="middle" x="792.45" y="-263.23" font-family="sans-serif" font-size="10.00">1:N</text>
</g>
<!-- app_dataset_rel -->
<g id="node6" class="node">
<title>app_dataset_rel</title>
<path fill="#f5f8fc" stroke="black" d="M955.27,-368C955.27,-368 875.17,-368 875.17,-368 869.17,-368 863.17,-362 863.17,-356 863.17,-356 863.17,-344 863.17,-344 863.17,-338 869.17,-332 875.17,-332 875.17,-332 955.27,-332 955.27,-332 961.27,-332 967.27,-338 967.27,-344 967.27,-344 967.27,-356 967.27,-356 967.27,-362 961.27,-368 955.27,-368"/>
<text xml:space="preserve" text-anchor="middle" x="915.22" y="-346.4" font-family="monospace" font-size="12.00">app_dataset_rel</text>
</g>
<!-- app&#45;&gt;app_dataset_rel -->
<g id="edge3" class="edge">
<title>app&#45;&gt;app_dataset_rel</title>
<path fill="none" stroke="#555555" d="M696.15,-291.96C732.98,-301.76 801.29,-319.94 851.68,-333.35"/>
<polygon fill="#555555" stroke="#555555" points="850.76,-336.73 861.32,-335.92 852.56,-329.97 850.76,-336.73"/>
<text xml:space="preserve" text-anchor="middle" x="792.45" y="-328.23" font-family="sans-serif" font-size="10.00">1:N</text>
</g>
<!-- app_tool_rel -->
<g id="node7" class="node">
<title>app_tool_rel</title>
<path fill="#f5f8fc" stroke="black" d="M947.95,-303C947.95,-303 882.49,-303 882.49,-303 876.49,-303 870.49,-297 870.49,-291 870.49,-291 870.49,-279 870.49,-279 870.49,-273 876.49,-267 882.49,-267 882.49,-267 947.95,-267 947.95,-267 953.95,-267 959.95,-273 959.95,-279 959.95,-279 959.95,-291 959.95,-291 959.95,-297 953.95,-303 947.95,-303"/>
<text xml:space="preserve" text-anchor="middle" x="915.22" y="-281.4" font-family="monospace" font-size="12.00">app_tool_rel</text>
</g>
<!-- app&#45;&gt;app_tool_rel -->
<g id="edge4" class="edge">
<title>app&#45;&gt;app_tool_rel</title>
<path fill="none" stroke="#555555" d="M696.15,-285C734.73,-285 807.85,-285 858.73,-285"/>
<polygon fill="#555555" stroke="#555555" points="858.68,-288.5 868.68,-285 858.68,-281.5 858.68,-288.5"/>
<text xml:space="preserve" text-anchor="middle" x="792.45" y="-288" font-family="sans-serif" font-size="10.00">1:N</text>
</g>
<!-- workflow_def -->
<g id="node13" class="node">
<title>workflow_def</title>
<path fill="#f5f8fc" stroke="black" d="M951.61,-453C951.61,-453 878.83,-453 878.83,-453 872.83,-453 866.83,-447 866.83,-441 866.83,-441 866.83,-429 866.83,-429 866.83,-423 872.83,-417 878.83,-417 878.83,-417 951.61,-417 951.61,-417 957.61,-417 963.61,-423 963.61,-429 963.61,-429 963.61,-441 963.61,-441 963.61,-447 957.61,-453 951.61,-453"/>
<text xml:space="preserve" text-anchor="middle" x="915.22" y="-431.4" font-family="monospace" font-size="12.00">workflow_def</text>
</g>
<!-- app&#45;&gt;workflow_def -->
<g id="edge13" class="edge">
<title>app&#45;&gt;workflow_def</title>
<path fill="none" stroke="#888888" stroke-dasharray="5,2" d="M678.78,-303.37C692.08,-329.19 719.89,-375.76 757.74,-400 786.76,-418.59 824.31,-427.38 855.35,-431.51"/>
<polygon fill="#888888" stroke="#888888" points="854.61,-434.95 864.96,-432.65 855.44,-427.99 854.61,-434.95"/>
<text xml:space="preserve" text-anchor="middle" x="792.45" y="-429.46" font-family="sans-serif" font-size="10.00" fill="#888888">published_def_id</text>
</g>
<!-- dataset -->
<g id="node10" class="node">
<title>dataset</title>
<path fill="#f5f8fc" stroke="black" d="M1147.6,-368C1147.6,-368 1109.48,-368 1109.48,-368 1103.48,-368 1097.48,-362 1097.48,-356 1097.48,-356 1097.48,-344 1097.48,-344 1097.48,-338 1103.48,-332 1109.48,-332 1109.48,-332 1147.6,-332 1147.6,-332 1153.6,-332 1159.6,-338 1159.6,-344 1159.6,-344 1159.6,-356 1159.6,-356 1159.6,-362 1153.6,-368 1147.6,-368"/>
<text xml:space="preserve" text-anchor="middle" x="1128.54" y="-346.4" font-family="monospace" font-size="12.00">dataset</text>
</g>
<!-- app_dataset_rel&#45;&gt;dataset -->
<g id="edge11" class="edge">
<title>app_dataset_rel&#45;&gt;dataset</title>
<path fill="none" stroke="#888888" stroke-dasharray="5,2" d="M967.64,-350C1003.93,-350 1051.92,-350 1085.82,-350"/>
<polygon fill="#888888" stroke="#888888" points="1085.67,-353.5 1095.67,-350 1085.67,-346.5 1085.67,-353.5"/>
<text xml:space="preserve" text-anchor="middle" x="1023.54" y="-353" font-family="sans-serif" font-size="10.00" fill="#888888">dataset_id</text>
</g>
<!-- tool -->
<g id="node16" class="node">
<title>tool</title>
<path fill="#f5f8fc" stroke="black" d="M1143.54,-276C1143.54,-276 1113.54,-276 1113.54,-276 1107.54,-276 1101.54,-270 1101.54,-264 1101.54,-264 1101.54,-252 1101.54,-252 1101.54,-246 1107.54,-240 1113.54,-240 1113.54,-240 1143.54,-240 1143.54,-240 1149.54,-240 1155.54,-246 1155.54,-252 1155.54,-252 1155.54,-264 1155.54,-264 1155.54,-270 1149.54,-276 1143.54,-276"/>
<text xml:space="preserve" text-anchor="middle" x="1128.54" y="-254.4" font-family="monospace" font-size="12.00">tool</text>
</g>
<!-- app_tool_rel&#45;&gt;tool -->
<g id="edge12" class="edge">
<title>app_tool_rel&#45;&gt;tool</title>
<path fill="none" stroke="#888888" stroke-dasharray="5,2" d="M960.26,-279.37C998.68,-274.46 1053.81,-267.42 1090.13,-262.78"/>
<polygon fill="#888888" stroke="#888888" points="1090.24,-266.29 1099.71,-261.56 1089.35,-259.35 1090.24,-266.29"/>
<text xml:space="preserve" text-anchor="middle" x="1023.54" y="-276.12" font-family="sans-serif" font-size="10.00" fill="#888888">tool_id</text>
</g>
<!-- conversation&#45;&gt;app -->
<g id="edge15" class="edge">
<title>conversation&#45;&gt;app</title>
<path fill="none" stroke="#888888" stroke-dasharray="5,2" d="M496.93,-416.61C531.67,-389.88 596.21,-340.23 635.33,-310.15"/>
<polygon fill="#888888" stroke="#888888" points="637.22,-313.1 643.01,-304.23 632.95,-307.55 637.22,-313.1"/>
<text xml:space="preserve" text-anchor="middle" x="566.68" y="-371.98" font-family="sans-serif" font-size="10.00" fill="#888888">app_id</text>
</g>
<!-- message -->
<g id="node9" class="node">
<title>message</title>
<path fill="#f5f8fc" stroke="black" d="M691.74,-458C691.74,-458 646.29,-458 646.29,-458 640.29,-458 634.29,-452 634.29,-446 634.29,-446 634.29,-434 634.29,-434 634.29,-428 640.29,-422 646.29,-422 646.29,-422 691.74,-422 691.74,-422 697.74,-422 703.74,-428 703.74,-434 703.74,-434 703.74,-446 703.74,-446 703.74,-452 697.74,-458 691.74,-458"/>
<text xml:space="preserve" text-anchor="middle" x="669.01" y="-436.4" font-family="monospace" font-size="12.00">message</text>
</g>
<!-- conversation&#45;&gt;message -->
<g id="edge9" class="edge">
<title>conversation&#45;&gt;message</title>
<path fill="none" stroke="#555555" d="M517.27,-436.13C548.79,-436.94 591.03,-438.03 622.77,-438.84"/>
<polygon fill="#555555" stroke="#555555" points="622.36,-442.33 632.44,-439.09 622.54,-435.33 622.36,-442.33"/>
<text xml:space="preserve" text-anchor="middle" x="566.68" y="-440.65" font-family="sans-serif" font-size="10.00">1:N</text>
</g>
<!-- kb_document -->
<g id="node11" class="node">
<title>kb_document</title>
<path fill="#f5f8fc" stroke="black" d="M1362.72,-368C1362.72,-368 1292.6,-368 1292.6,-368 1286.6,-368 1280.6,-362 1280.6,-356 1280.6,-356 1280.6,-344 1280.6,-344 1280.6,-338 1286.6,-332 1292.6,-332 1292.6,-332 1362.72,-332 1362.72,-332 1368.72,-332 1374.72,-338 1374.72,-344 1374.72,-344 1374.72,-356 1374.72,-356 1374.72,-362 1368.72,-368 1362.72,-368"/>
<text xml:space="preserve" text-anchor="middle" x="1327.66" y="-346.4" font-family="monospace" font-size="12.00">kb_document</text>
</g>
<!-- dataset&#45;&gt;kb_document -->
<g id="edge5" class="edge">
<title>dataset&#45;&gt;kb_document</title>
<path fill="none" stroke="#555555" d="M1159.91,-350C1188.85,-350 1233.18,-350 1268.86,-350"/>
<polygon fill="#555555" stroke="#555555" points="1268.59,-353.5 1278.59,-350 1268.59,-346.5 1268.59,-353.5"/>
<text xml:space="preserve" text-anchor="middle" x="1220.77" y="-353" font-family="sans-serif" font-size="10.00">1:N</text>
</g>
<!-- kb_chunk -->
<g id="node12" class="node">
<title>kb_chunk</title>
<path fill="#f5f8fc" stroke="black" d="M1598.91,-368.6C1598.91,-368.6 1490.05,-368.6 1490.05,-368.6 1484.05,-368.6 1478.05,-362.6 1478.05,-356.6 1478.05,-356.6 1478.05,-337.4 1478.05,-337.4 1478.05,-331.4 1484.05,-325.4 1490.05,-325.4 1490.05,-325.4 1598.91,-325.4 1598.91,-325.4 1604.91,-325.4 1610.91,-331.4 1610.91,-337.4 1610.91,-337.4 1610.91,-356.6 1610.91,-356.6 1610.91,-362.6 1604.91,-368.6 1598.91,-368.6"/>
<text xml:space="preserve" text-anchor="middle" x="1544.48" y="-350.6" font-family="monospace" font-size="12.00">kb_chunk</text>
<text xml:space="preserve" text-anchor="middle" x="1544.48" y="-336.2" font-family="monospace" font-size="12.00">(+ embedding vector)</text>
</g>
<!-- kb_document&#45;&gt;kb_chunk -->
<g id="edge6" class="edge">
<title>kb_document&#45;&gt;kb_chunk</title>
<path fill="none" stroke="#555555" d="M1375,-349.35C1401.58,-348.98 1435.63,-348.51 1466.15,-348.08"/>
<polygon fill="#555555" stroke="#555555" points="1466.19,-351.58 1476.14,-347.94 1466.09,-344.58 1466.19,-351.58"/>
<text xml:space="preserve" text-anchor="middle" x="1434.55" y="-351.59" font-family="sans-serif" font-size="10.00">1:N</text>
</g>
<!-- workflow_def&#45;&gt;app -->
<g id="edge14" class="edge">
<title>workflow_def&#45;&gt;app</title>
<path fill="none" stroke="#888888" stroke-dasharray="5,2" d="M874.08,-416.59C868.86,-413.87 863.66,-410.97 858.83,-408 843.79,-398.75 841.89,-393.76 827.17,-384 797.49,-364.31 787.96,-362.84 757.74,-344 740.32,-333.15 721.39,-320.52 705.58,-309.74"/>
<polygon fill="#888888" stroke="#888888" points="707.66,-306.92 697.44,-304.15 703.71,-312.7 707.66,-306.92"/>
<text xml:space="preserve" text-anchor="middle" x="792.45" y="-387" font-family="sans-serif" font-size="10.00" fill="#888888">app_id</text>
</g>
<!-- workflow_run -->
<g id="node14" class="node">
<title>workflow_run</title>
<path fill="#f5f8fc" stroke="black" d="M1165.27,-458C1165.27,-458 1091.81,-458 1091.81,-458 1085.81,-458 1079.81,-452 1079.81,-446 1079.81,-446 1079.81,-434 1079.81,-434 1079.81,-428 1085.81,-422 1091.81,-422 1091.81,-422 1165.27,-422 1165.27,-422 1171.27,-422 1177.27,-428 1177.27,-434 1177.27,-434 1177.27,-446 1177.27,-446 1177.27,-452 1171.27,-458 1165.27,-458"/>
<text xml:space="preserve" text-anchor="middle" x="1128.54" y="-436.4" font-family="monospace" font-size="12.00">workflow_run</text>
</g>
<!-- workflow_def&#45;&gt;workflow_run -->
<g id="edge7" class="edge">
<title>workflow_def&#45;&gt;workflow_run</title>
<path fill="none" stroke="#555555" d="M963.91,-436.13C994.83,-436.86 1035.35,-437.82 1068.34,-438.6"/>
<polygon fill="#555555" stroke="#555555" points="1068.07,-442.09 1078.15,-438.83 1068.23,-435.1 1068.07,-442.09"/>
<text xml:space="preserve" text-anchor="middle" x="1023.54" y="-440.95" font-family="sans-serif" font-size="10.00">1:N</text>
</g>
<!-- workflow_node_run -->
<g id="node15" class="node">
<title>workflow_node_run</title>
<path fill="#f5f8fc" stroke="black" d="M1379.05,-458C1379.05,-458 1276.27,-458 1276.27,-458 1270.27,-458 1264.27,-452 1264.27,-446 1264.27,-446 1264.27,-434 1264.27,-434 1264.27,-428 1270.27,-422 1276.27,-422 1276.27,-422 1379.05,-422 1379.05,-422 1385.05,-422 1391.05,-428 1391.05,-434 1391.05,-434 1391.05,-446 1391.05,-446 1391.05,-452 1385.05,-458 1379.05,-458"/>
<text xml:space="preserve" text-anchor="middle" x="1327.66" y="-436.4" font-family="monospace" font-size="12.00">workflow_node_run</text>
</g>
<!-- workflow_run&#45;&gt;workflow_node_run -->
<g id="edge8" class="edge">
<title>workflow_run&#45;&gt;workflow_node_run</title>
<path fill="none" stroke="#555555" d="M1177.76,-440C1200.29,-440 1227.63,-440 1252.7,-440"/>
<polygon fill="#555555" stroke="#555555" points="1252.52,-443.5 1262.52,-440 1252.52,-436.5 1252.52,-443.5"/>
<text xml:space="preserve" text-anchor="middle" x="1220.77" y="-443" font-family="sans-serif" font-size="10.00">1:N</text>
</g>
<!-- llm_call_log -->
<g id="node17" class="node">
<title>llm_call_log</title>
<path fill="#f5f8fc" stroke="black" d="M124.45,-210.6C124.45,-210.6 28,-210.6 28,-210.6 22,-210.6 16,-204.6 16,-198.6 16,-198.6 16,-179.4 16,-179.4 16,-173.4 22,-167.4 28,-167.4 28,-167.4 124.45,-167.4 124.45,-167.4 130.45,-167.4 136.45,-173.4 136.45,-179.4 136.45,-179.4 136.45,-198.6 136.45,-198.6 136.45,-204.6 130.45,-210.6 124.45,-210.6"/>
<text xml:space="preserve" text-anchor="middle" x="76.23" y="-192.6" font-family="monospace" font-size="12.00">llm_call_log</text>
<text xml:space="preserve" text-anchor="middle" x="76.23" y="-178.2" font-family="monospace" font-size="12.00">(monthly partition)</text>
</g>
<!-- llm_call_log&#45;&gt;sys_user -->
<g id="edge19" class="edge">
<title>llm_call_log&#45;&gt;sys_user</title>
<path fill="none" stroke="#888888" stroke-dasharray="5,2" d="M121.03,-210.93C137.09,-218.76 155.49,-227.5 172.45,-235 190.22,-242.85 210.04,-250.95 227.28,-257.79"/>
<polygon fill="#888888" stroke="#888888" points="225.64,-260.9 236.23,-261.31 228.21,-254.39 225.64,-260.9"/>
<text xml:space="preserve" text-anchor="middle" x="187.17" y="-249.56" font-family="sans-serif" font-size="10.00" fill="#888888">user_id</text>
</g>
<!-- llm_call_log&#45;&gt;ai_model -->
<g id="edge18" class="edge">
<title>llm_call_log&#45;&gt;ai_model</title>
<path fill="none" stroke="#888888" stroke-dasharray="5,2" d="M136.52,-172.75C249.81,-143.57 505.04,-86.77 721.74,-103 771.73,-106.75 828.42,-115.89 867.26,-122.92"/>
<polygon fill="#888888" stroke="#888888" points="866.26,-126.29 876.73,-124.65 867.53,-119.41 866.26,-126.29"/>
<text xml:space="preserve" text-anchor="middle" x="472.02" y="-119.61" font-family="sans-serif" font-size="10.00" fill="#888888">model_id</text>
</g>
<!-- llm_call_log&#45;&gt;app -->
<g id="edge17" class="edge">
<title>llm_call_log&#45;&gt;app</title>
<path fill="none" stroke="#888888" stroke-dasharray="5,2" d="M136.85,-198.69C258.19,-218.41 530.79,-262.7 630.53,-278.91"/>
<polygon fill="#888888" stroke="#888888" points="629.89,-282.35 640.33,-280.5 631.02,-275.44 629.89,-282.35"/>
<text xml:space="preserve" text-anchor="middle" x="367.49" y="-242.21" font-family="sans-serif" font-size="10.00" fill="#888888">app_id</text>
</g>
<!-- usage_stat_daily -->
<g id="node18" class="node">
<title>usage_stat_daily</title>
<path fill="#f5f8fc" stroke="black" d="M118.62,-138C118.62,-138 33.84,-138 33.84,-138 27.84,-138 21.84,-132 21.84,-126 21.84,-126 21.84,-114 21.84,-114 21.84,-108 27.84,-102 33.84,-102 33.84,-102 118.62,-102 118.62,-102 124.62,-102 130.62,-108 130.62,-114 130.62,-114 130.62,-126 130.62,-126 130.62,-132 124.62,-138 118.62,-138"/>
<text xml:space="preserve" text-anchor="middle" x="76.23" y="-116.4" font-family="monospace" font-size="12.00">usage_stat_daily</text>
</g>
<!-- usage_stat_daily&#45;&gt;sys_user -->
<g id="edge22" class="edge">
<title>usage_stat_daily&#45;&gt;sys_user</title>
<path fill="none" stroke="#888888" stroke-dasharray="5,2" d="M119.6,-138.33C128.1,-142.68 136.78,-147.64 144.45,-153 184.62,-181.06 224.36,-221.67 248.53,-248.2"/>
<polygon fill="#888888" stroke="#888888" points="245.81,-250.41 255.1,-255.5 251.01,-245.72 245.81,-250.41"/>
<text xml:space="preserve" text-anchor="middle" x="187.17" y="-202.16" font-family="sans-serif" font-size="10.00" fill="#888888">user_id</text>
</g>
<!-- usage_stat_daily&#45;&gt;ai_model -->
<g id="edge21" class="edge">
<title>usage_stat_daily&#45;&gt;ai_model</title>
<path fill="none" stroke="#888888" stroke-dasharray="5,2" d="M93.12,-101.51C123.93,-67.85 195.51,0 271.96,0 271.96,0 271.96,0 670.01,0 743.45,0 763.87,-13.78 827.17,-51 851.79,-65.48 875.23,-87.97 891.57,-105.58"/>
<polygon fill="#888888" stroke="#888888" points="888.67,-107.59 897.97,-112.65 893.85,-102.89 888.67,-107.59"/>
<text xml:space="preserve" text-anchor="middle" x="472.02" y="-3" font-family="sans-serif" font-size="10.00" fill="#888888">model_id</text>
</g>
<!-- usage_stat_daily&#45;&gt;app -->
<g id="edge20" class="edge">
<title>usage_stat_daily&#45;&gt;app</title>
<path fill="none" stroke="#888888" stroke-dasharray="5,2" d="M129.84,-101.55C215.72,-74.72 389.24,-34.49 517.07,-96 553.02,-113.29 618.74,-209.01 650.25,-257.23"/>
<polygon fill="#888888" stroke="#888888" points="647.23,-259 655.61,-265.48 653.1,-255.19 647.23,-259"/>
<text xml:space="preserve" text-anchor="middle" x="367.49" y="-67.76" font-family="sans-serif" font-size="10.00" fill="#888888">app_id</text>
</g>
<!-- system_setting -->
<g id="node19" class="node">
<title>system_setting</title>
<path fill="#f5f8fc" stroke="black" d="M114.29,-376C114.29,-376 38.16,-376 38.16,-376 32.16,-376 26.16,-370 26.16,-364 26.16,-364 26.16,-352 26.16,-352 26.16,-346 32.16,-340 38.16,-340 38.16,-340 114.29,-340 114.29,-340 120.29,-340 126.29,-346 126.29,-352 126.29,-352 126.29,-364 126.29,-364 126.29,-370 120.29,-376 114.29,-376"/>
<text xml:space="preserve" text-anchor="middle" x="76.23" y="-354.4" font-family="monospace" font-size="12.00">system_setting</text>
</g>
</g>
</svg>

