<?xml version="1.0" encoding="UTF-8" standalone="no"?>
<!DOCTYPE svg PUBLIC "-//W3C//DTD SVG 1.1//EN"
 "http://www.w3.org/Graphics/SVG/1.1/DTD/svg11.dtd">
<!-- Generated by graphviz version 15.1.0 (0)
 -->
<!-- Title: hify_er Pages: 1 -->
<svg width="1635pt" height="529pt"
 viewBox="0.00 0.00 1635.00 529.00" xmlns="http://www.w3.org/2000/svg" xmlns:xlink="http://www.w3.org/1999/xlink">
<g id="graph0" class="graph" transform="scale(1 1) rotate(0) translate(4 525)">
<title>hify_er</title>
<polygon fill="white" stroke="none" points="-4,4 -4,-525 1630.91,-525 1630.91,4 -4,4"/>
<g id="clust1" class="cluster">
<title>cluster_identity</title>
<path fill="none" stroke="#9bb7d4" d="M241.89,-249C241.89,-249 304.02,-249 304.02,-249 310.02,-249 316.02,-255 316.02,-261 316.02,-261 316.02,-314 316.02,-314 316.02,-320 310.02,-326 304.02,-326 304.02,-326 241.89,-326 241.89,-326 235.89,-326 229.89,-320 229.89,-314 229.89,-314 229.89,-261 229.89,-261 229.89,-255 235.89,-249 241.89,-249"/>
<text xml:space="preserve" text-anchor="middle" x="272.96" y="-309.4" font-family="sans-serif" font-size="14.00">identity</text>
</g>
<g id="clust2" class="cluster">
<title>cluster_provider</title>
<path fill="none" stroke="#9bb7d4" d="M620.29,-126C620.29,-126 947.95,-126 947.95,-126 953.95,-126 959.95,-132 959.95,-138 959.95,-138 959.95,-196 959.95,-196 959.95,-202 953.95,-208 947.95,-208 947.95,-208 620.29,-208 620.29,-208 614.29,-208 608.29,-202 608.29,-196 608.29,-196 608.29,-138 608.29,-138 608.29,-132 614.29,-126 620.29,-126"/>
<text xml:space="preserve" text-anchor="middle" x="784.12" y="-191.4" font-family="sans-serif" font-size="14.00">provider</text>
</g>
<g id="clust3" class="cluster">
<title>cluster_app</title>
<path fill="none" stroke="#88b04b" d="M646.01,-216C646.01,-216 963.27,-216 963.27,-216 969.27,-216 975.27,-222 975.27,-228 975.27,-228 975.27,-411 975.27,-411 975.27,-417 969.27,-423 963.27,-423 963.27,-423 646.01,-423 646.01,-423 640.01,-423 634.01,-417 634.01,-411 634.01,-411 634.01,-228 634.01,-228 634.01,-222 640.01,-216 646.01,-216"/>
<text xml:space="preserve" text-anchor="middle" x="804.64" y="-406.4" font-family="sans-serif" font-size="14.00">app</text>
</g>
<g id="clust4" class="cluster">
<title>cluster_conversation</title>
<path fill="none" stroke="#e0a96d" d="M430.96,-431C430.96,-431 699.74,-431 699.74,-431 705.74,-431 711.74,-437 711.74,-443 711.74,-443 711.74,-501 711.74,-501 711.74,-507 705.74,-513 699.74,-513 699.74,-513 430.96,-513 430.96,-513 424.96,-513 418.96,-507 418.96,-501 418.96,-501 418.96,-443 418.96,-443 418.96,-437 424.96,-431 430.96,-431"/>
<text xml:space="preserve" text-anchor="middle" x="565.35" y="-496.4" font-family="sans-serif" font-size="14.00">conversation</text>
</g>
<g id="clust5" class="cluster">
<title>cluster_knowledge</title>
<path fill="none" stroke="#88b04b" d="M1101.48,-339C1101.48,-339 1606.91,-339 1606.91,-339 1612.91,-339 1618.91,-345 1618.91,-351 1618.91,-351 1618.91,-411 1618.91,-411 1618.91,-417 1612.91,-423 1606.91,-423 1606.91,-423 1101.48,-423 1101.48,-423 1095.48,-423 1089.48,-417 1089.48,-411 1089.48,-411 1089.48,-351 1089.48,-351 1089.48,-345 1095.48,-339 1101.48,-339"/>
<text xml:space="preserve" text-anchor="middle" x="1354.19" y="-406.4" font-family="sans-serif" font-size="14.00">knowledge</text>
</g>
<g id="clust6" class="cluster">
<title>cluster_workflow</title>
<path fill="none" stroke="#d98a8a" d="M870.83,-431C870.83,-431 1387.05,-431 1387.05,-431 1393.05,-431 1399.05,-437 1399.05,-443 1399.05,-443 1399.05,-501 1399.05,-501 1399.05,-507 1393.05,-513 1387.05,-513 1387.05,-513 870.83,-513 870.83,-513 864.83,-513 858.83,-507 858.83,-501 858.83,-501 858.83,-443 858.83,-443 858.83,-437 864.83,-431 870.83,-431"/>
<text xml:space="preserve" text-anchor="middle" x="1128.94" y="-496.4" font-family="sans-serif" font-size="14.00">workflow</text>
</g>
<g id="clust7" class="cluster">
<title>cluster_tool</title>
<path fill="none" stroke="#9bb7d4" d="M1105.54,-254C1105.54,-254 1151.54,-254 1151.54,-254 1157.54,-254 1163.54,-260 1163.54,-266 1163.54,-266 1163.54,-319 1163.54,-319 1163.54,-325 1157.54,-331 1151.54,-331 1151.54,-331 1105.54,-331 1105.54,-331 1099.54,-331 1093.54,-325 1093.54,-319 1093.54,-319 1093.54,-266 1093.54,-266 1093.54,-260 1099.54,-254 1105.54,-254"/>
<text xml:space="preserve" text-anchor="middle" x="1128.54" y="-314.4" font-family="sans-serif" font-size="14.00">tool</text>
</g>
<g id="clust8" class="cluster">
<title>cluster_usage</title>
<path fill="none" stroke="#b0a8c9" d="M20,-43C20,-43 132.45,-43 132.45,-43 138.45,-43 144.45,-49 144.45,-55 144.45,-55 144.45,-245 144.45,-245 144.45,-251 138.45,-257 132.45,-257 132.45,-257 20,-257 20,-257 14,-257 8,-251 8,-245 8,-245 8,-55 8,-55 8,-49 14,-43 20,-43"/>
<text xml:space="preserve" text-anchor="middle" x="76.23" y="-240.4" font-family="sans-serif" font-size="14.00">usage</text>
</g>
<g id="clust9" class="cluster">
<title>cluster_system</title>
<path fill="none" stroke="#cccccc" d="M30.16,-345C30.16,-345 122.29,-345 122.29,-345 128.29,-345 134.29,-351 134.29,-357 134.29,-357 134.29,-410 134.29,-410 134.29,-416 128.29,-422 122.29,-422 122.29,-422 30.16,-422 30.16,-422 24.16,-422 18.16,-416 18.16,-410 18.16,-410 18.16,-357 18.16,-357 18.16,-351 24.16,-345 30.16,-345"/>
<text xml:space="preserve" text-anchor="middle" x="76.23" y="-405.4" font-family="sans-serif" font-size="14.00">system</text>
</g>
<!-- sys_user -->
<g id="node1" class="node">
<title>sys_user</title>
<path fill="#f5f8fc" stroke="black" d="M296.02,-293C296.02,-293 249.89,-293 249.89,-293 243.89,-293 237.89,-287 237.89,-281 237.89,-281 237.89,-269 237.89,-269 237.89,-263 243.89,-257 249.89,-257 249.89,-257 296.02,-257 296.02,-257 302.02,-257 308.02,-263 308.02,-269 308.02,-269 308.02,-281 308.02,-281 308.02,-287 302.02,-293 296.02,-293"/>
<text xml:space="preserve" text-anchor="middle" x="272.96" y="-271.4" font-family="monospace" font-size="12.00">sys_user</text>
</g>
<!-- conversation -->
<g id="node8" class="node">
<title>conversation</title>
<path fill="#f5f8fc" stroke="black" d="M505.07,-475C505.07,-475 438.96,-475 438.96,-475 432.96,-475 426.96,-469 426.96,-463 426.96,-463 426.96,-451 426.96,-451 426.96,-445 432.96,-439 438.96,-439 438.96,-439 505.07,-439 505.07,-439 511.07,-439 517.07,-445 517.07,-451 517.07,-451 517.07,-463 517.07,-463 517.07,-469 511.07,-475 505.07,-475"/>
<text xml:space="preserve" text-anchor="middle" x="472.02" y="-453.4" font-family="monospace" font-size="12.00">conversation</text>
</g>
<!-- sys_user&#45;&gt;conversation -->
<g id="edge16" class="edge">
<title>sys_user&#45;&gt;conversation</title>
<path fill="none" stroke="#888888" stroke-dasharray="5,2" d="M302.29,-301.17C342.78,-338.56 416.17,-406.35 451.28,-438.77"/>
<polygon fill="#888888" stroke="#888888" points="304.77,-298.69 295.05,-294.48 300.02,-303.84 304.77,-298.69"/>
<text xml:space="preserve" text-anchor="middle" x="367.49" y="-385.3" font-family="sans-serif" font-size="10.00" fill="#888888">1:N user_id</text>
</g>
<!-- model_provider -->
<g id="node2" class="node">
<title>model_provider</title>
<path fill="#f5f8fc" stroke="black" d="M709.74,-175C709.74,-175 628.29,-175 628.29,-175 622.29,-175 616.29,-169 616.29,-163 616.29,-163 616.29,-151 616.29,-151 616.29,-145 622.29,-139 628.29,-139 628.29,-139 709.74,-139 709.74,-139 715.74,-139 721.74,-145 721.74,-151 721.74,-151 721.74,-163 721.74,-163 721.74,-169 715.74,-175 709.74,-175"/>
<text xml:space="preserve" text-anchor="middle" x="669.01" y="-153.4" font-family="monospace" font-size="12.00">model_provider</text>
</g>
<!-- ai_model -->
<g id="node3" class="node">
<title>ai_model</title>
<path fill="#f5f8fc" stroke="black" d="M939.95,-172C939.95,-172 890.49,-172 890.49,-172 884.49,-172 878.49,-166 878.49,-160 878.49,-160 878.49,-148 878.49,-148 878.49,-142 884.49,-136 890.49,-136 890.49,-136 939.95,-136 939.95,-136 945.95,-136 951.95,-142 951.95,-148 951.95,-148 951.95,-160 951.95,-160 951.95,-166 945.95,-172 939.95,-172"/>
<text xml:space="preserve" text-anchor="middle" x="915.22" y="-150.4" font-family="monospace" font-size="12.00">ai_model</text>
</g>
<!-- model_provider&#45;&gt;ai_model -->
<g id="edge1" class="edge">
<title>model_provider&#45;&gt;ai_model</title>
<path fill="none" stroke="#555555" d="M722.1,-156.36C764.9,-155.83 825.04,-155.1 866.58,-154.59"/>
<polygon fill="#555555" stroke="#555555" points="866.57,-158.09 876.53,-154.46 866.48,-151.09 866.57,-158.09"/>
<text xml:space="preserve" text-anchor="middle" x="792.45" y="-158.86" font-family="sans-serif" font-size="10.00">1:N</text>
</g>
<!-- app -->
<g id="node4" class="node">
<title>app</title>
<path fill="#f5f8fc" stroke="black" d="M684.01,-325C684.01,-325 654.01,-325 654.01,-325 648.01,-325 642.01,-319 642.01,-313 642.01,-313 642.01,-301 642.01,-301 642.01,-295 648.01,-289 654.01,-289 654.01,-289 684.01,-289 684.01,-289 690.01,-289 696.01,-295 696.01,-301 696.01,-301 696.01,-313 696.01,-313 696.01,-319 690.01,-325 684.01,-325"/>
<text xml:space="preserve" text-anchor="middle" x="669.01" y="-303.4" font-family="monospace" font-size="12.00">app</text>
</g>
<!-- app&#45;&gt;ai_model -->
<g id="edge10" class="edge">
<title>app&#45;&gt;ai_model</title>
<path fill="none" stroke="#888888" stroke-dasharray="5,2" d="M696.27,-288.83C713.58,-276.98 736.83,-261.3 757.74,-248 796.22,-223.52 840.9,-196.86 872.63,-178.2"/>
<polygon fill="#888888" stroke="#888888" points="874.3,-181.28 881.15,-173.2 870.76,-175.24 874.3,-181.28"/>
<text xml:space="preserve" text-anchor="middle" x="792.45" y="-251" font-family="sans-serif" font-size="10.00" fill="#888888">model_id</text>
</g>
<!-- app_api_key -->
<g id="node5" class="node">
<title>app_api_key</title>
<path fill="#f5f8fc" stroke="black" d="M948.28,-260C948.28,-260 882.16,-260 882.16,-260 876.16,-260 870.16,-254 870.16,-248 870.16,-248 870.16,-236 870.16,-236 870.16,-230 876.16,-224 882.16,-224 882.16,-224 948.28,-224 948.28,-224 954.28,-224 960.28,-230 960.28,-236 960.28,-236 960.28,-248 960.28,-248 960.28,-254 954.28,-260 948.28,-260"/>
<text xml:space="preserve" text-anchor="middle" x="915.22" y="-238.4" font-family="monospace" font-size="12.00">app_api_key</text>
</g>
<!-- app&#45;&gt;app_api_key -->
<g id="edge2" class="edge">
<title>app&#45;&gt;app_api_key</title>
<path fill="none" stroke="#555555" d="M696.15,-300.04C734.78,-289.76 808.03,-270.26 858.92,-256.72"/>
<polygon fill="#555555" stroke="#555555" points="859.51,-260.18 868.28,-254.23 857.71,-253.42 859.51,-260.18"/>
<text xml:space="preserve" text-anchor="middle" x="792.45" y="-285.23" font-family="sans-serif" font-size="10.00">1:N</text>
</g>
<!-- app_dataset_rel -->
<g id="node6" class="node">
<title>app_dataset_rel</title>
<path fill="#f5f8fc" stroke="black" d="M955.27,-390C955.27,-390 875.17,-390 875.17,-390 869.17,-390 863.17,-384 863.17,-378 863.17,-378 863.17,-366 863.17,-366 863.17,-360 869.17,-354 875.17,-354 875.17,-354 955.27,-354 955.27,-354 961.27,-354 967.27,-360 967.27,-366 967.27,-366 967.27,-378 967.27,-378 967.27,-384 961.27,-390 955.27,-390"/>
<text xml:space="preserve" text-anchor="middle" x="915.22" y="-368.4" font-family="monospace" font-size="12.00">app_dataset_rel</text>
</g>
<!-- app&#45;&gt;app_dataset_rel -->
<g id="edge3" class="edge">
<title>app&#45;&gt;app_dataset_rel</title>
<path fill="none" stroke="#555555" d="M696.15,-313.96C732.98,-323.76 801.29,-341.94 851.68,-355.35"/>
<polygon fill="#555555" stroke="#555555" points="850.76,-358.73 861.32,-357.92 852.56,-351.97 850.76,-358.73"/>
<text xml:space="preserve" text-anchor="middle" x="792.45" y="-350.23" font-family="sans-serif" font-size="10.00">1:N</text>
</g>
<!-- app_tool_rel -->
<g id="node7" class="node">
<title>app_tool_rel</title>
<path fill="#f5f8fc" stroke="black" d="M947.95,-325C947.95,-325 882.49,-325 882.49,-325 876.49,-325 870.49,-319 870.49,-313 870.49,-313 870.49,-301 870.49,-301 870.49,-295 876.49,-289 882.49,-289 882.49,-289 947.95,-289 947.95,-289 953.95,-289 959.95,-295 959.95,-301 959.95,-301 959.95,-313 959.95,-313 959.95,-319 953.95,-325 947.95,-325"/>
<text xml:space="preserve" text-anchor="middle" x="915.22" y="-303.4" font-family="monospace" font-size="12.00">app_tool_rel</text>
</g>
<!-- app&#45;&gt;app_tool_rel -->
<g id="edge4" class="edge">
<title>app&#45;&gt;app_tool_rel</title>
<path fill="none" stroke="#555555" d="M696.15,-307C734.73,-307 807.85,-307 858.73,-307"/>
<polygon fill="#555555" stroke="#555555" points="858.68,-310.5 868.68,-307 858.68,-303.5 858.68,-310.5"/>
<text xml:space="preserve" text-anchor="middle" x="792.45" y="-310" font-family="sans-serif" font-size="10.00">1:N</text>
</g>
<!-- workflow_def -->
<g id="node13" class="node">
<title>workflow_def</title>
<path fill="#f5f8fc" stroke="black" d="M951.61,-475C951.61,-475 878.83,-475 878.83,-475 872.83,-475 866.83,-469 866.83,-463 866.83,-463 866.83,-451 866.83,-451 866.83,-445 872.83,-439 878.83,-439 878.83,-439 951.61,-439 951.61,-439 957.61,-439 963.61,-445 963.61,-451 963.61,-451 963.61,-463 963.61,-463 963.61,-469 957.61,-475 951.61,-475"/>
<text xml:space="preserve" text-anchor="middle" x="915.22" y="-453.4" font-family="monospace" font-size="12.00">workflow_def</text>
</g>
<!-- app&#45;&gt;workflow_def -->
<g id="edge13" class="edge">
<title>app&#45;&gt;workflow_def</title>
<path fill="none" stroke="#888888" stroke-dasharray="5,2" d="M678.78,-325.37C692.08,-351.19 719.89,-397.76 757.74,-422 786.76,-440.59 824.31,-449.38 855.35,-453.51"/>
<polygon fill="#888888" stroke="#888888" points="854.61,-456.95 864.96,-454.65 855.44,-449.99 854.61,-456.95"/>
<text xml:space="preserve" text-anchor="middle" x="792.45" y="-451.46" font-family="sans-serif" font-size="10.00" fill="#888888">published_def_id</text>
</g>
<!-- dataset -->
<g id="node10" class="node">
<title>dataset</title>
<path fill="#f5f8fc" stroke="black" d="M1147.6,-390C1147.6,-390 1109.48,-390 1109.48,-390 1103.48,-390 1097.48,-384 1097.48,-378 1097.48,-378 1097.48,-366 1097.48,-366 1097.48,-360 1103.48,-354 1109.48,-354 1109.48,-354 1147.6,-354 1147.6,-354 1153.6,-354 1159.6,-360 1159.6,-366 1159.6,-366 1159.6,-378 1159.6,-378 1159.6,-384 1153.6,-390 1147.6,-390"/>
<text xml:space="preserve" text-anchor="middle" x="1128.54" y="-368.4" font-family="monospace" font-size="12.00">dataset</text>
</g>
<!-- app_dataset_rel&#45;&gt;dataset -->
<g id="edge11" class="edge">
<title>app_dataset_rel&#45;&gt;dataset</title>
<path fill="none" stroke="#888888" stroke-dasharray="5,2" d="M967.64,-372C1003.93,-372 1051.92,-372 1085.82,-372"/>
<polygon fill="#888888" stroke="#888888" points="1085.67,-375.5 1095.67,-372 1085.67,-368.5 1085.67,-375.5"/>
<text xml:space="preserve" text-anchor="middle" x="1023.54" y="-375" font-family="sans-serif" font-size="10.00" fill="#888888">dataset_id</text>
</g>
<!-- tool -->
<g id="node16" class="node">
<title>tool</title>
<path fill="#f5f8fc" stroke="black" d="M1143.54,-298C1143.54,-298 1113.54,-298 1113.54,-298 1107.54,-298 1101.54,-292 1101.54,-286 1101.54,-286 1101.54,-274 1101.54,-274 1101.54,-268 1107.54,-262 1113.54,-262 1113.54,-262 1143.54,-262 1143.54,-262 1149.54,-262 1155.54,-268 1155.54,-274 1155.54,-274 1155.54,-286 1155.54,-286 1155.54,-292 1149.54,-298 1143.54,-298"/>
<text xml:space="preserve" text-anchor="middle" x="1128.54" y="-276.4" font-family="monospace" font-size="12.00">tool</text>
</g>
<!-- app_tool_rel&#45;&gt;tool -->
<g id="edge12" class="edge">
<title>app_tool_rel&#45;&gt;tool</title>
<path fill="none" stroke="#888888" stroke-dasharray="5,2" d="M960.26,-301.37C998.68,-296.46 1053.81,-289.42 1090.13,-284.78"/>
<polygon fill="#888888" stroke="#888888" points="1090.24,-288.29 1099.71,-283.56 1089.35,-281.35 1090.24,-288.29"/>
<text xml:space="preserve" text-anchor="middle" x="1023.54" y="-298.12" font-family="sans-serif" font-size="10.00" fill="#888888">tool_id</text>
</g>
<!-- conversation&#45;&gt;app -->
<g id="edge15" class="edge">
<title>conversation&#45;&gt;app</title>
<path fill="none" stroke="#888888" stroke-dasharray="5,2" d="M496.93,-438.61C531.67,-411.88 596.21,-362.23 635.33,-332.15"/>
<polygon fill="#888888" stroke="#888888" points="637.22,-335.1 643.01,-326.23 632.95,-329.55 637.22,-335.1"/>
<text xml:space="preserve" text-anchor="middle" x="566.68" y="-393.98" font-family="sans-serif" font-size="10.00" fill="#888888">app_id</text>
</g>
<!-- message -->
<g id="node9" class="node">
<title>message</title>
<path fill="#f5f8fc" stroke="black" d="M691.74,-480C691.74,-480 646.29,-480 646.29,-480 640.29,-480 634.29,-474 634.29,-468 634.29,-468 634.29,-456 634.29,-456 634.29,-450 640.29,-444 646.29,-444 646.29,-444 691.74,-444 691.74,-444 697.74,-444 703.74,-450 703.74,-456 703.74,-456 703.74,-468 703.74,-468 703.74,-474 697.74,-480 691.74,-480"/>
<text xml:space="preserve" text-anchor="middle" x="669.01" y="-458.4" font-family="monospace" font-size="12.00">message</text>
</g>
<!-- conversation&#45;&gt;message -->
<g id="edge9" class="edge">
<title>conversation&#45;&gt;message</title>
<path fill="none" stroke="#555555" d="M517.27,-458.13C548.79,-458.94 591.03,-460.03 622.77,-460.84"/>
<polygon fill="#555555" stroke="#555555" points="622.36,-464.33 632.44,-461.09 622.54,-457.33 622.36,-464.33"/>
<text xml:space="preserve" text-anchor="middle" x="566.68" y="-462.65" font-family="sans-serif" font-size="10.00">1:N</text>
</g>
<!-- kb_document -->
<g id="node11" class="node">
<title>kb_document</title>
<path fill="#f5f8fc" stroke="black" d="M1362.72,-390C1362.72,-390 1292.6,-390 1292.6,-390 1286.6,-390 1280.6,-384 1280.6,-378 1280.6,-378 1280.6,-366 1280.6,-366 1280.6,-360 1286.6,-354 1292.6,-354 1292.6,-354 1362.72,-354 1362.72,-354 1368.72,-354 1374.72,-360 1374.72,-366 1374.72,-366 1374.72,-378 1374.72,-378 1374.72,-384 1368.72,-390 1362.72,-390"/>
<text xml:space="preserve" text-anchor="middle" x="1327.66" y="-368.4" font-family="monospace" font-size="12.00">kb_document</text>
</g>
<!-- dataset&#45;&gt;kb_document -->
<g id="edge5" class="edge">
<title>dataset&#45;&gt;kb_document</title>
<path fill="none" stroke="#555555" d="M1159.91,-372C1188.85,-372 1233.18,-372 1268.86,-372"/>
<polygon fill="#555555" stroke="#555555" points="1268.59,-375.5 1278.59,-372 1268.59,-368.5 1268.59,-375.5"/>
<text xml:space="preserve" text-anchor="middle" x="1220.77" y="-375" font-family="sans-serif" font-size="10.00">1:N</text>
</g>
<!-- kb_chunk -->
<g id="node12" class="node">
<title>kb_chunk</title>
<path fill="#f5f8fc" stroke="black" d="M1598.91,-390.6C1598.91,-390.6 1490.05,-390.6 1490.05,-390.6 1484.05,-390.6 1478.05,-384.6 1478.05,-378.6 1478.05,-378.6 1478.05,-359.4 1478.05,-359.4 1478.05,-353.4 1484.05,-347.4 1490.05,-347.4 1490.05,-347.4 1598.91,-347.4 1598.91,-347.4 1604.91,-347.4 1610.91,-353.4 1610.91,-359.4 1610.91,-359.4 1610.91,-378.6 1610.91,-378.6 1610.91,-384.6 1604.91,-390.6 1598.91,-390.6"/>
<text xml:space="preserve" text-anchor="middle" x="1544.48" y="-372.6" font-family="monospace" font-size="12.00">kb_chunk</text>
<text xml:space="preserve" text-anchor="middle" x="1544.48" y="-358.2" font-family="monospace" font-size="12.00">(+ embedding vector)</text>
</g>
<!-- kb_document&#45;&gt;kb_chunk -->
<g id="edge6" class="edge">
<title>kb_document&#45;&gt;kb_chunk</title>
<path fill="none" stroke="#555555" d="M1375,-371.35C1401.58,-370.98 1435.63,-370.51 1466.15,-370.08"/>
<polygon fill="#555555" stroke="#555555" points="1466.19,-373.58 1476.14,-369.94 1466.09,-366.58 1466.19,-373.58"/>
<text xml:space="preserve" text-anchor="middle" x="1434.55" y="-373.59" font-family="sans-serif" font-size="10.00">1:N</text>
</g>
<!-- workflow_def&#45;&gt;app -->
<g id="edge14" class="edge">
<title>workflow_def&#45;&gt;app</title>
<path fill="none" stroke="#888888" stroke-dasharray="5,2" d="M874.08,-438.59C868.86,-435.87 863.66,-432.97 858.83,-430 843.79,-420.75 841.89,-415.76 827.17,-406 797.49,-386.31 787.96,-384.84 757.74,-366 740.32,-355.15 721.39,-342.52 705.58,-331.74"/>
<polygon fill="#888888" stroke="#888888" points="707.66,-328.92 697.44,-326.15 703.71,-334.7 707.66,-328.92"/>
<text xml:space="preserve" text-anchor="middle" x="792.45" y="-409" font-family="sans-serif" font-size="10.00" fill="#888888">app_id</text>
</g>
<!-- workflow_run -->
<g id="node14" class="node">
<title>workflow_run</title>
<path fill="#f5f8fc" stroke="black" d="M1165.27,-480C1165.27,-480 1091.81,-480 1091.81,-480 1085.81,-480 1079.81,-474 1079.81,-468 1079.81,-468 1079.81,-456 1079.81,-456 1079.81,-450 1085.81,-444 1091.81,-444 1091.81,-444 1165.27,-444 1165.27,-444 1171.27,-444 1177.27,-450 1177.27,-456 1177.27,-456 1177.27,-468 1177.27,-468 1177.27,-474 1171.27,-480 1165.27,-480"/>
<text xml:space="preserve" text-anchor="middle" x="1128.54" y="-458.4" font-family="monospace" font-size="12.00">workflow_run</text>
</g>
<!-- workflow_def&#45;&gt;workflow_run -->
<g id="edge7" class="edge">
<title>workflow_def&#45;&gt;workflow_run</title>
<path fill="none" stroke="#555555" d="M963.91,-458.13C994.83,-458.86 1035.35,-459.82 1068.34,-460.6"/>
<polygon fill="#555555" stroke="#555555" points="1068.07,-464.09 1078.15,-460.83 1068.23,-457.1 1068.07,-464.09"/>
<text xml:space="preserve" text-anchor="middle" x="1023.54" y="-462.95" font-family="sans-serif" font-size="10.00">1:N</text>
</g>
<!-- workflow_node_run -->
<g id="node15" class="node">
<title>workflow_node_run</title>
<path fill="#f5f8fc" stroke="black" d="M1379.05,-480C1379.05,-480 1276.27,-480 1276.27,-480 1270.27,-480 1264.27,-474 1264.27,-468 1264.27,-468 1264.27,-456 1264.27,-456 1264.27,-450 1270.27,-444 1276.27,-444 1276.27,-444 1379.05,-444 1379.05,-444 1385.05,-444 1391.05,-450 1391.05,-456 1391.05,-456 1391.05,-468 1391.05,-468 1391.05,-474 1385.05,-480 1379.05,-480"/>
<text xml:space="preserve" text-anchor="middle" x="1327.66" y="-458.4" font-family="monospace" font-size="12.00">workflow_node_run</text>
</g>
<!-- workflow_run&#45;&gt;workflow_node_run -->
<g id="edge8" class="edge">
<title>workflow_run&#45;&gt;workflow_node_run</title>
<path fill="none" stroke="#555555" d="M1177.76,-462C1200.29,-462 1227.63,-462 1252.7,-462"/>
<polygon fill="#555555" stroke="#555555" points="1252.52,-465.5 1262.52,-462 1252.52,-458.5 1252.52,-465.5"/>
<text xml:space="preserve" text-anchor="middle" x="1220.77" y="-465" font-family="sans-serif" font-size="10.00">1:N</text>
</g>
<!-- llm_call_log -->
<g id="node17" class="node">
<title>llm_call_log</title>
<path fill="#f5f8fc" stroke="black" d="M124.45,-224.6C124.45,-224.6 28,-224.6 28,-224.6 22,-224.6 16,-218.6 16,-212.6 16,-212.6 16,-193.4 16,-193.4 16,-187.4 22,-181.4 28,-181.4 28,-181.4 124.45,-181.4 124.45,-181.4 130.45,-181.4 136.45,-187.4 136.45,-193.4 136.45,-193.4 136.45,-212.6 136.45,-212.6 136.45,-218.6 130.45,-224.6 124.45,-224.6"/>
<text xml:space="preserve" text-anchor="middle" x="76.23" y="-206.6" font-family="monospace" font-size="12.00">llm_call_log</text>
<text xml:space="preserve" text-anchor="middle" x="76.23" y="-192.2" font-family="monospace" font-size="12.00">(monthly partition)</text>
</g>
<!-- llm_call_log&#45;&gt;sys_user -->
<g id="edge19" class="edge">
<title>llm_call_log&#45;&gt;sys_user</title>
<path fill="none" stroke="#888888" stroke-dasharray="5,2" d="M136.71,-224.99C165.71,-235.72 200.02,-248.4 226.83,-258.31"/>
<polygon fill="#888888" stroke="#888888" points="225.43,-261.53 236.03,-261.72 227.86,-254.96 225.43,-261.53"/>
<text xml:space="preserve" text-anchor="middle" x="187.17" y="-250.57" font-family="sans-serif" font-size="10.00" fill="#888888">user_id</text>
</g>
<!-- llm_call_log&#45;&gt;ai_model -->
<g id="edge18" class="edge">
<title>llm_call_log&#45;&gt;ai_model</title>
<path fill="none" stroke="#888888" stroke-dasharray="5,2" d="M118.92,-180.9C127.39,-176.35 136.23,-171.55 144.45,-167 156.99,-160.06 158.72,-155.09 172.45,-151 406.69,-81.26 478.02,-106.74 721.74,-125 771.73,-128.75 828.42,-137.89 867.26,-144.92"/>
<polygon fill="#888888" stroke="#888888" points="866.26,-148.29 876.73,-146.65 867.53,-141.41 866.26,-148.29"/>
<text xml:space="preserve" text-anchor="middle" x="472.02" y="-110.66" font-family="sans-serif" font-size="10.00" fill="#888888">model_id</text>
</g>
<!-- llm_call_log&#45;&gt;app -->
<g id="edge17" class="edge">
<title>llm_call_log&#45;&gt;app</title>
<path fill="none" stroke="#888888" stroke-dasharray="5,2" d="M136.66,-212.36C185,-220.05 254.98,-231.38 316.02,-242 430.72,-261.95 566.05,-287.51 630.39,-299.79"/>
<polygon fill="#888888" stroke="#888888" points="629.59,-303.2 640.07,-301.64 630.9,-296.32 629.59,-303.2"/>
<text xml:space="preserve" text-anchor="middle" x="367.49" y="-258.15" font-family="sans-serif" font-size="10.00" fill="#888888">app_id</text>
</g>
<!-- daily_usage -->
<g id="node18" class="node">
<title>daily_usage</title>
<path fill="#f5f8fc" stroke="black" d="M107.28,-152C107.28,-152 45.17,-152 45.17,-152 39.17,-152 33.17,-146 33.17,-140 33.17,-140 33.17,-128 33.17,-128 33.17,-122 39.17,-116 45.17,-116 45.17,-116 107.28,-116 107.28,-116 113.28,-116 119.28,-122 119.28,-128 119.28,-128 119.28,-140 119.28,-140 119.28,-146 113.28,-152 107.28,-152"/>
<text xml:space="preserve" text-anchor="middle" x="76.23" y="-130.4" font-family="monospace" font-size="12.00">daily_usage</text>
</g>
<!-- usage_stat_daily -->
<g id="node19" class="node">
<title>usage_stat_daily</title>
<path fill="#f5f8fc" stroke="black" d="M118.62,-87C118.62,-87 33.84,-87 33.84,-87 27.84,-87 21.84,-81 21.84,-75 21.84,-75 21.84,-63 21.84,-63 21.84,-57 27.84,-51 33.84,-51 33.84,-51 118.62,-51 118.62,-51 124.62,-51 130.62,-57 130.62,-63 130.62,-63 130.62,-75 130.62,-75 130.62,-81 124.62,-87 118.62,-87"/>
<text xml:space="preserve" text-anchor="middle" x="76.23" y="-65.4" font-family="monospace" font-size="12.00">usage_stat_daily</text>
</g>
<!-- usage_stat_daily&#45;&gt;sys_user -->
<g id="edge22" class="edge">
<title>usage_stat_daily&#45;&gt;sys_user</title>
<path fill="none" stroke="#888888" stroke-dasharray="5,2" d="M122.47,-87.46C130.21,-91.64 137.87,-96.5 144.45,-102 194.7,-143.98 235.98,-209.71 256.97,-246.89"/>
<polygon fill="#888888" stroke="#888888" points="253.7,-248.21 261.61,-255.26 259.82,-244.81 253.7,-248.21"/>
<text xml:space="preserve" text-anchor="middle" x="187.17" y="-164.76" font-family="sans-serif" font-size="10.00" fill="#888888">user_id</text>
</g>
<!-- usage_stat_daily&#45;&gt;ai_model -->
<g id="edge21" class="edge">
<title>usage_stat_daily&#45;&gt;ai_model</title>
<path fill="none" stroke="#888888" stroke-dasharray="5,2" d="M108.41,-50.51C145.89,-30.07 211.34,0 271.96,0 271.96,0 271.96,0 670.01,0 764.27,0 851.82,-83.09 891.66,-127.21"/>
<polygon fill="#888888" stroke="#888888" points="888.95,-129.43 898.2,-134.6 894.19,-124.79 888.95,-129.43"/>
<text xml:space="preserve" text-anchor="middle" x="472.02" y="-3" font-family="sans-serif" font-size="10.00" fill="#888888">model_id</text>
</g>
<!-- usage_stat_daily&#45;&gt;app -->
<g id="edge20" class="edge">
<title>usage_stat_daily&#45;&gt;app</title>
<path fill="none" stroke="#888888" stroke-dasharray="5,2" d="M131.03,-58.32C218.21,-43.92 393.08,-27.36 517.07,-96 536.36,-106.68 614.45,-224.47 650.11,-279.27"/>
<polygon fill="#888888" stroke="#888888" points="647.04,-280.97 655.42,-287.45 652.91,-277.16 647.04,-280.97"/>
<text xml:space="preserve" text-anchor="middle" x="367.49" y="-56.49" font-family="sans-serif" font-size="10.00" fill="#888888">app_id</text>
</g>
<!-- system_setting -->
<g id="node20" class="node">
<title>system_setting</title>
<path fill="#f5f8fc" stroke="black" d="M114.29,-389C114.29,-389 38.16,-389 38.16,-389 32.16,-389 26.16,-383 26.16,-377 26.16,-377 26.16,-365 26.16,-365 26.16,-359 32.16,-353 38.16,-353 38.16,-353 114.29,-353 114.29,-353 120.29,-353 126.29,-359 126.29,-365 126.29,-365 126.29,-377 126.29,-377 126.29,-383 120.29,-389 114.29,-389"/>
<text xml:space="preserve" text-anchor="middle" x="76.23" y="-367.4" font-family="monospace" font-size="12.00">system_setting</text>
</g>
</g>
</svg>

