<?xml version="1.0" encoding="UTF-8" standalone="no"?>
<!DOCTYPE svg PUBLIC "-//W3C//DTD SVG 1.1//EN"
 "http://www.w3.org/Graphics/SVG/1.1/DTD/svg11.dtd">
<!-- Generated by graphviz version 15.0.0 (0)
 -->
<!-- Title: hify_er Pages: 1 -->
<svg width="1656pt" height="614pt"
 viewBox="0.00 0.00 1656.00 614.00" xmlns="http://www.w3.org/2000/svg" xmlns:xlink="http://www.w3.org/1999/xlink">
<g id="graph0" class="graph" transform="scale(1 1) rotate(0) translate(4 610)">
<title>hify_er</title>
<polygon fill="white" stroke="none" points="-4,4 -4,-610 1652.02,-610 1652.02,4 -4,4"/>
<g id="clust1" class="cluster">
<title>cluster_identity</title>
<path fill="none" stroke="#9bb7d4" d="M241.89,-445C241.89,-445 304.02,-445 304.02,-445 310.02,-445 316.02,-451 316.02,-457 316.02,-457 316.02,-510 316.02,-510 316.02,-516 310.02,-522 304.02,-522 304.02,-522 241.89,-522 241.89,-522 235.89,-522 229.89,-516 229.89,-510 229.89,-510 229.89,-457 229.89,-457 229.89,-451 235.89,-445 241.89,-445"/>
<text xml:space="preserve" text-anchor="middle" x="272.96" y="-505.4" font-family="sans-serif" font-size="14.00">identity</text>
</g>
<g id="clust2" class="cluster">
<title>cluster_provider</title>
<path fill="none" stroke="#9bb7d4" d="M620.29,-31C620.29,-31 947.95,-31 947.95,-31 953.95,-31 959.95,-37 959.95,-43 959.95,-43 959.95,-101 959.95,-101 959.95,-107 953.95,-113 947.95,-113 947.95,-113 620.29,-113 620.29,-113 614.29,-113 608.29,-107 608.29,-101 608.29,-101 608.29,-43 608.29,-43 608.29,-37 614.29,-31 620.29,-31"/>
<text xml:space="preserve" text-anchor="middle" x="784.12" y="-96.4" font-family="sans-serif" font-size="14.00">provider</text>
</g>
<g id="clust3" class="cluster">
<title>cluster_app</title>
<path fill="none" stroke="#88b04b" d="M646.01,-301C646.01,-301 963.27,-301 963.27,-301 969.27,-301 975.27,-307 975.27,-313 975.27,-313 975.27,-496 975.27,-496 975.27,-502 969.27,-508 963.27,-508 963.27,-508 646.01,-508 646.01,-508 640.01,-508 634.01,-502 634.01,-496 634.01,-496 634.01,-313 634.01,-313 634.01,-307 640.01,-301 646.01,-301"/>
<text xml:space="preserve" text-anchor="middle" x="804.64" y="-491.4" font-family="sans-serif" font-size="14.00">app</text>
</g>
<g id="clust4" class="cluster">
<title>cluster_conversation</title>
<path fill="none" stroke="#e0a96d" d="M430.96,-516C430.96,-516 699.74,-516 699.74,-516 705.74,-516 711.74,-522 711.74,-528 711.74,-528 711.74,-586 711.74,-586 711.74,-592 705.74,-598 699.74,-598 699.74,-598 430.96,-598 430.96,-598 424.96,-598 418.96,-592 418.96,-586 418.96,-586 418.96,-528 418.96,-528 418.96,-522 424.96,-516 430.96,-516"/>
<text xml:space="preserve" text-anchor="middle" x="565.35" y="-581.4" font-family="sans-serif" font-size="14.00">conversation</text>
</g>
<g id="clust5" class="cluster">
<title>cluster_knowledge</title>
<path fill="none" stroke="#88b04b" d="M1122.59,-424C1122.59,-424 1628.02,-424 1628.02,-424 1634.02,-424 1640.02,-430 1640.02,-436 1640.02,-436 1640.02,-496 1640.02,-496 1640.02,-502 1634.02,-508 1628.02,-508 1628.02,-508 1122.59,-508 1122.59,-508 1116.59,-508 1110.59,-502 1110.59,-496 1110.59,-496 1110.59,-436 1110.59,-436 1110.59,-430 1116.59,-424 1122.59,-424"/>
<text xml:space="preserve" text-anchor="middle" x="1375.31" y="-491.4" font-family="sans-serif" font-size="14.00">knowledge</text>
</g>
<g id="clust6" class="cluster">
<title>cluster_workflow</title>
<path fill="none" stroke="#d98a8a" d="M870.83,-121C870.83,-121 1408.16,-121 1408.16,-121 1414.16,-121 1420.16,-127 1420.16,-133 1420.16,-133 1420.16,-191 1420.16,-191 1420.16,-197 1414.16,-203 1408.16,-203 1408.16,-203 870.83,-203 870.83,-203 864.83,-203 858.83,-197 858.83,-191 858.83,-191 858.83,-133 858.83,-133 858.83,-127 864.83,-121 870.83,-121"/>
<text xml:space="preserve" text-anchor="middle" x="1139.49" y="-186.4" font-family="sans-serif" font-size="14.00">workflow</text>
</g>
<g id="clust7" class="cluster">
<title>cluster_tool</title>
<path fill="none" stroke="#9bb7d4" d="M876.83,-211C876.83,-211 1172.65,-211 1172.65,-211 1178.65,-211 1184.65,-217 1184.65,-223 1184.65,-223 1184.65,-281 1184.65,-281 1184.65,-287 1178.65,-293 1172.65,-293 1172.65,-293 876.83,-293 876.83,-293 870.83,-293 864.83,-287 864.83,-281 864.83,-281 864.83,-223 864.83,-223 864.83,-217 870.83,-211 876.83,-211"/>
<text xml:space="preserve" text-anchor="middle" x="1024.74" y="-276.4" font-family="sans-serif" font-size="14.00">tool</text>
</g>
<g id="clust8" class="cluster">
<title>cluster_usage</title>
<path fill="none" stroke="#b0a8c9" d="M20,-308C20,-308 132.45,-308 132.45,-308 138.45,-308 144.45,-314 144.45,-320 144.45,-320 144.45,-446 144.45,-446 144.45,-452 138.45,-458 132.45,-458 132.45,-458 20,-458 20,-458 14,-458 8,-452 8,-446 8,-446 8,-320 8,-320 8,-314 14,-308 20,-308"/>
<text xml:space="preserve" text-anchor="middle" x="76.23" y="-441.4" font-family="sans-serif" font-size="14.00">usage</text>
</g>
<g id="clust9" class="cluster">
<title>cluster_system</title>
<path fill="none" stroke="#cccccc" d="M30.16,-493C30.16,-493 122.29,-493 122.29,-493 128.29,-493 134.29,-499 134.29,-505 134.29,-505 134.29,-558 134.29,-558 134.29,-564 128.29,-570 122.29,-570 122.29,-570 30.16,-570 30.16,-570 24.16,-570 18.16,-564 18.16,-558 18.16,-558 18.16,-505 18.16,-505 18.16,-499 24.16,-493 30.16,-493"/>
<text xml:space="preserve" text-anchor="middle" x="76.23" y="-553.4" font-family="sans-serif" font-size="14.00">system</text>
</g>
<!-- sys_user -->
<g id="node1" class="node">
<title>sys_user</title>
<path fill="#f5f8fc" stroke="black" d="M296.02,-489C296.02,-489 249.89,-489 249.89,-489 243.89,-489 237.89,-483 237.89,-477 237.89,-477 237.89,-465 237.89,-465 237.89,-459 243.89,-453 249.89,-453 249.89,-453 296.02,-453 296.02,-453 302.02,-453 308.02,-459 308.02,-465 308.02,-465 308.02,-477 308.02,-477 308.02,-483 302.02,-489 296.02,-489"/>
<text xml:space="preserve" text-anchor="middle" x="272.96" y="-467.4" font-family="monospace" font-size="12.00">sys_user</text>
</g>
<!-- conversation -->
<g id="node8" class="node">
<title>conversation</title>
<path fill="#f5f8fc" stroke="black" d="M505.07,-560C505.07,-560 438.96,-560 438.96,-560 432.96,-560 426.96,-554 426.96,-548 426.96,-548 426.96,-536 426.96,-536 426.96,-530 432.96,-524 438.96,-524 438.96,-524 505.07,-524 505.07,-524 511.07,-524 517.07,-530 517.07,-536 517.07,-536 517.07,-548 517.07,-548 517.07,-554 511.07,-560 505.07,-560"/>
<text xml:space="preserve" text-anchor="middle" x="472.02" y="-538.4" font-family="monospace" font-size="12.00">conversation</text>
</g>
<!-- sys_user&#45;&gt;conversation -->
<g id="edge17" class="edge">
<title>sys_user&#45;&gt;conversation</title>
<path fill="none" stroke="#888888" stroke-dasharray="5,2" d="M318.78,-487.15C351.1,-498.8 394.52,-514.44 426.72,-526.04"/>
<polygon fill="#888888" stroke="#888888" points="320.3,-483.98 309.71,-483.88 317.93,-490.56 320.3,-483.98"/>
<text xml:space="preserve" text-anchor="middle" x="367.49" y="-515.86" font-family="sans-serif" font-size="10.00" fill="#888888">1:N user_id</text>
</g>
<!-- model_provider -->
<g id="node2" class="node">
<title>model_provider</title>
<path fill="#f5f8fc" stroke="black" d="M709.74,-80C709.74,-80 628.29,-80 628.29,-80 622.29,-80 616.29,-74 616.29,-68 616.29,-68 616.29,-56 616.29,-56 616.29,-50 622.29,-44 628.29,-44 628.29,-44 709.74,-44 709.74,-44 715.74,-44 721.74,-50 721.74,-56 721.74,-56 721.74,-68 721.74,-68 721.74,-74 715.74,-80 709.74,-80"/>
<text xml:space="preserve" text-anchor="middle" x="669.01" y="-58.4" font-family="monospace" font-size="12.00">model_provider</text>
</g>
<!-- ai_model -->
<g id="node3" class="node">
<title>ai_model</title>
<path fill="#f5f8fc" stroke="black" d="M939.95,-80C939.95,-80 890.49,-80 890.49,-80 884.49,-80 878.49,-74 878.49,-68 878.49,-68 878.49,-56 878.49,-56 878.49,-50 884.49,-44 890.49,-44 890.49,-44 939.95,-44 939.95,-44 945.95,-44 951.95,-50 951.95,-56 951.95,-56 951.95,-68 951.95,-68 951.95,-74 945.95,-80 939.95,-80"/>
<text xml:space="preserve" text-anchor="middle" x="915.22" y="-58.4" font-family="monospace" font-size="12.00">ai_model</text>
</g>
<!-- model_provider&#45;&gt;ai_model -->
<g id="edge1" class="edge">
<title>model_provider&#45;&gt;ai_model</title>
<path fill="none" stroke="#555555" d="M722.1,-62C764.9,-62 825.04,-62 866.58,-62"/>
<polygon fill="#555555" stroke="#555555" points="866.53,-65.5 876.53,-62 866.53,-58.5 866.53,-65.5"/>
<text xml:space="preserve" text-anchor="middle" x="792.45" y="-65" font-family="sans-serif" font-size="10.00">1:N</text>
</g>
<!-- app -->
<g id="node4" class="node">
<title>app</title>
<path fill="#f5f8fc" stroke="black" d="M684.01,-356C684.01,-356 654.01,-356 654.01,-356 648.01,-356 642.01,-350 642.01,-344 642.01,-344 642.01,-332 642.01,-332 642.01,-326 648.01,-320 654.01,-320 654.01,-320 684.01,-320 684.01,-320 690.01,-320 696.01,-326 696.01,-332 696.01,-332 696.01,-344 696.01,-344 696.01,-350 690.01,-356 684.01,-356"/>
<text xml:space="preserve" text-anchor="middle" x="669.01" y="-334.4" font-family="monospace" font-size="12.00">app</text>
</g>
<!-- app&#45;&gt;ai_model -->
<g id="edge11" class="edge">
<title>app&#45;&gt;ai_model</title>
<path fill="none" stroke="#888888" stroke-dasharray="5,2" d="M675.69,-319.62C686.88,-285.69 714.53,-212.27 757.74,-164 788.7,-129.4 833.99,-101.6 867.88,-83.81"/>
<polygon fill="#888888" stroke="#888888" points="869.36,-86.98 876.66,-79.3 866.16,-80.76 869.36,-86.98"/>
<text xml:space="preserve" text-anchor="middle" x="792.45" y="-167" font-family="sans-serif" font-size="10.00" fill="#888888">model_id</text>
</g>
<!-- app_api_key -->
<g id="node5" class="node">
<title>app_api_key</title>
<path fill="#f5f8fc" stroke="black" d="M948.28,-345C948.28,-345 882.16,-345 882.16,-345 876.16,-345 870.16,-339 870.16,-333 870.16,-333 870.16,-321 870.16,-321 870.16,-315 876.16,-309 882.16,-309 882.16,-309 948.28,-309 948.28,-309 954.28,-309 960.28,-315 960.28,-321 960.28,-321 960.28,-333 960.28,-333 960.28,-339 954.28,-345 948.28,-345"/>
<text xml:space="preserve" text-anchor="middle" x="915.22" y="-323.4" font-family="monospace" font-size="12.00">app_api_key</text>
</g>
<!-- app&#45;&gt;app_api_key -->
<g id="edge2" class="edge">
<title>app&#45;&gt;app_api_key</title>
<path fill="none" stroke="#555555" d="M696.15,-336.82C734.62,-335.09 807.42,-331.81 858.28,-329.52"/>
<polygon fill="#555555" stroke="#555555" points="858.4,-333.02 868.23,-329.07 858.08,-326.03 858.4,-333.02"/>
<text xml:space="preserve" text-anchor="middle" x="792.45" y="-336.81" font-family="sans-serif" font-size="10.00">1:N</text>
</g>
<!-- app_dataset_rel -->
<g id="node6" class="node">
<title>app_dataset_rel</title>
<path fill="#f5f8fc" stroke="black" d="M955.27,-475C955.27,-475 875.17,-475 875.17,-475 869.17,-475 863.17,-469 863.17,-463 863.17,-463 863.17,-451 863.17,-451 863.17,-445 869.17,-439 875.17,-439 875.17,-439 955.27,-439 955.27,-439 961.27,-439 967.27,-445 967.27,-451 967.27,-451 967.27,-463 967.27,-463 967.27,-469 961.27,-475 955.27,-475"/>
<text xml:space="preserve" text-anchor="middle" x="915.22" y="-453.4" font-family="monospace" font-size="12.00">app_dataset_rel</text>
</g>
<!-- app&#45;&gt;app_dataset_rel -->
<g id="edge3" class="edge">
<title>app&#45;&gt;app_dataset_rel</title>
<path fill="none" stroke="#555555" d="M696.38,-354.86C713.54,-365.52 736.58,-379.26 757.74,-390 789.79,-406.28 826.72,-422.21 856.65,-434.46"/>
<polygon fill="#555555" stroke="#555555" points="854.94,-437.54 865.52,-438.06 857.58,-431.06 854.94,-437.54"/>
<text xml:space="preserve" text-anchor="middle" x="792.45" y="-424.4" font-family="sans-serif" font-size="10.00">1:N</text>
</g>
<!-- app_tool_rel -->
<g id="node7" class="node">
<title>app_tool_rel</title>
<path fill="#f5f8fc" stroke="black" d="M947.95,-410C947.95,-410 882.49,-410 882.49,-410 876.49,-410 870.49,-404 870.49,-398 870.49,-398 870.49,-386 870.49,-386 870.49,-380 876.49,-374 882.49,-374 882.49,-374 947.95,-374 947.95,-374 953.95,-374 959.95,-380 959.95,-386 959.95,-386 959.95,-398 959.95,-398 959.95,-404 953.95,-410 947.95,-410"/>
<text xml:space="preserve" text-anchor="middle" x="915.22" y="-388.4" font-family="monospace" font-size="12.00">app_tool_rel</text>
</g>
<!-- app&#45;&gt;app_tool_rel -->
<g id="edge4" class="edge">
<title>app&#45;&gt;app_tool_rel</title>
<path fill="none" stroke="#555555" d="M696.15,-343.78C734.81,-352.33 808.16,-368.55 859.05,-379.8"/>
<polygon fill="#555555" stroke="#555555" points="858.19,-383.2 868.71,-381.94 859.7,-376.36 858.19,-383.2"/>
<text xml:space="preserve" text-anchor="middle" x="792.45" y="-374.42" font-family="sans-serif" font-size="10.00">1:N</text>
</g>
<!-- workflow_def -->
<g id="node13" class="node">
<title>workflow_def</title>
<path fill="#f5f8fc" stroke="black" d="M951.61,-170C951.61,-170 878.83,-170 878.83,-170 872.83,-170 866.83,-164 866.83,-158 866.83,-158 866.83,-146 866.83,-146 866.83,-140 872.83,-134 878.83,-134 878.83,-134 951.61,-134 951.61,-134 957.61,-134 963.61,-140 963.61,-146 963.61,-146 963.61,-158 963.61,-158 963.61,-164 957.61,-170 951.61,-170"/>
<text xml:space="preserve" text-anchor="middle" x="915.22" y="-148.4" font-family="monospace" font-size="12.00">workflow_def</text>
</g>
<!-- app&#45;&gt;workflow_def -->
<g id="edge14" class="edge">
<title>app&#45;&gt;workflow_def</title>
<path fill="none" stroke="#888888" stroke-dasharray="5,2" d="M696.31,-325.66C729.09,-309.51 785.81,-279.01 827.17,-243 844.01,-228.34 843.62,-220.34 858.83,-204 866.98,-195.24 876.32,-186.15 884.97,-178.08"/>
<polygon fill="#888888" stroke="#888888" points="887.23,-180.76 892.21,-171.41 882.48,-175.61 887.23,-180.76"/>
<text xml:space="preserve" text-anchor="middle" x="792.45" y="-292.75" font-family="sans-serif" font-size="10.00" fill="#888888">published_def_id</text>
</g>
<!-- dataset -->
<g id="node10" class="node">
<title>dataset</title>
<path fill="#f5f8fc" stroke="black" d="M1168.71,-475C1168.71,-475 1130.59,-475 1130.59,-475 1124.59,-475 1118.59,-469 1118.59,-463 1118.59,-463 1118.59,-451 1118.59,-451 1118.59,-445 1124.59,-439 1130.59,-439 1130.59,-439 1168.71,-439 1168.71,-439 1174.71,-439 1180.71,-445 1180.71,-451 1180.71,-451 1180.71,-463 1180.71,-463 1180.71,-469 1174.71,-475 1168.71,-475"/>
<text xml:space="preserve" text-anchor="middle" x="1149.65" y="-453.4" font-family="monospace" font-size="12.00">dataset</text>
</g>
<!-- app_dataset_rel&#45;&gt;dataset -->
<g id="edge12" class="edge">
<title>app_dataset_rel&#45;&gt;dataset</title>
<path fill="none" stroke="#888888" stroke-dasharray="5,2" d="M967.52,-457C1009.31,-457 1067.61,-457 1106.67,-457"/>
<polygon fill="#888888" stroke="#888888" points="1106.62,-460.5 1116.62,-457 1106.62,-453.5 1106.62,-460.5"/>
<text xml:space="preserve" text-anchor="middle" x="1034.1" y="-460" font-family="sans-serif" font-size="10.00" fill="#888888">dataset_id</text>
</g>
<!-- tool -->
<g id="node16" class="node">
<title>tool</title>
<path fill="#f5f8fc" stroke="black" d="M1164.65,-260C1164.65,-260 1134.65,-260 1134.65,-260 1128.65,-260 1122.65,-254 1122.65,-248 1122.65,-248 1122.65,-236 1122.65,-236 1122.65,-230 1128.65,-224 1134.65,-224 1134.65,-224 1164.65,-224 1164.65,-224 1170.65,-224 1176.65,-230 1176.65,-236 1176.65,-236 1176.65,-248 1176.65,-248 1176.65,-254 1170.65,-260 1164.65,-260"/>
<text xml:space="preserve" text-anchor="middle" x="1149.65" y="-238.4" font-family="monospace" font-size="12.00">tool</text>
</g>
<!-- app_tool_rel&#45;&gt;tool -->
<g id="edge13" class="edge">
<title>app_tool_rel&#45;&gt;tool</title>
<path fill="none" stroke="#888888" stroke-dasharray="5,2" d="M951.52,-373.62C959.42,-369.3 967.7,-364.61 975.27,-360 1024.73,-329.87 1079.65,-291.64 1114.16,-266.99"/>
<polygon fill="#888888" stroke="#888888" points="1116.02,-269.97 1122.11,-261.3 1111.94,-264.28 1116.02,-269.97"/>
<text xml:space="preserve" text-anchor="middle" x="1034.1" y="-344.79" font-family="sans-serif" font-size="10.00" fill="#888888">tool_id</text>
</g>
<!-- conversation&#45;&gt;app -->
<g id="edge16" class="edge">
<title>conversation&#45;&gt;app</title>
<path fill="none" stroke="#888888" stroke-dasharray="5,2" d="M490.67,-523.54C525.4,-487.2 602.72,-406.31 642.82,-364.36"/>
<polygon fill="#888888" stroke="#888888" points="645.12,-367.02 649.5,-357.37 640.06,-362.18 645.12,-367.02"/>
<text xml:space="preserve" text-anchor="middle" x="566.68" y="-455.21" font-family="sans-serif" font-size="10.00" fill="#888888">app_id</text>
</g>
<!-- message -->
<g id="node9" class="node">
<title>message</title>
<path fill="#f5f8fc" stroke="black" d="M691.74,-565C691.74,-565 646.29,-565 646.29,-565 640.29,-565 634.29,-559 634.29,-553 634.29,-553 634.29,-541 634.29,-541 634.29,-535 640.29,-529 646.29,-529 646.29,-529 691.74,-529 691.74,-529 697.74,-529 703.74,-535 703.74,-541 703.74,-541 703.74,-553 703.74,-553 703.74,-559 697.74,-565 691.74,-565"/>
<text xml:space="preserve" text-anchor="middle" x="669.01" y="-543.4" font-family="monospace" font-size="12.00">message</text>
</g>
<!-- conversation&#45;&gt;message -->
<g id="edge10" class="edge">
<title>conversation&#45;&gt;message</title>
<path fill="none" stroke="#555555" d="M517.27,-543.13C548.79,-543.94 591.03,-545.03 622.77,-545.84"/>
<polygon fill="#555555" stroke="#555555" points="622.36,-549.33 632.44,-546.09 622.54,-542.33 622.36,-549.33"/>
<text xml:space="preserve" text-anchor="middle" x="566.68" y="-547.65" font-family="sans-serif" font-size="10.00">1:N</text>
</g>
<!-- kb_document -->
<g id="node11" class="node">
<title>kb_document</title>
<path fill="#f5f8fc" stroke="black" d="M1383.83,-475C1383.83,-475 1313.71,-475 1313.71,-475 1307.71,-475 1301.71,-469 1301.71,-463 1301.71,-463 1301.71,-451 1301.71,-451 1301.71,-445 1307.71,-439 1313.71,-439 1313.71,-439 1383.83,-439 1383.83,-439 1389.83,-439 1395.83,-445 1395.83,-451 1395.83,-451 1395.83,-463 1395.83,-463 1395.83,-469 1389.83,-475 1383.83,-475"/>
<text xml:space="preserve" text-anchor="middle" x="1348.77" y="-453.4" font-family="monospace" font-size="12.00">kb_document</text>
</g>
<!-- dataset&#45;&gt;kb_document -->
<g id="edge5" class="edge">
<title>dataset&#45;&gt;kb_document</title>
<path fill="none" stroke="#555555" d="M1181.02,-457C1209.96,-457 1254.29,-457 1289.97,-457"/>
<polygon fill="#555555" stroke="#555555" points="1289.71,-460.5 1299.71,-457 1289.71,-453.5 1289.71,-460.5"/>
<text xml:space="preserve" text-anchor="middle" x="1241.88" y="-460" font-family="sans-serif" font-size="10.00">1:N</text>
</g>
<!-- kb_chunk -->
<g id="node12" class="node">
<title>kb_chunk</title>
<path fill="#f5f8fc" stroke="black" d="M1620.02,-475.6C1620.02,-475.6 1511.16,-475.6 1511.16,-475.6 1505.16,-475.6 1499.16,-469.6 1499.16,-463.6 1499.16,-463.6 1499.16,-444.4 1499.16,-444.4 1499.16,-438.4 1505.16,-432.4 1511.16,-432.4 1511.16,-432.4 1620.02,-432.4 1620.02,-432.4 1626.02,-432.4 1632.02,-438.4 1632.02,-444.4 1632.02,-444.4 1632.02,-463.6 1632.02,-463.6 1632.02,-469.6 1626.02,-475.6 1620.02,-475.6"/>
<text xml:space="preserve" text-anchor="middle" x="1565.59" y="-457.6" font-family="monospace" font-size="12.00">kb_chunk</text>
<text xml:space="preserve" text-anchor="middle" x="1565.59" y="-443.2" font-family="monospace" font-size="12.00">(+ embedding vector)</text>
</g>
<!-- kb_document&#45;&gt;kb_chunk -->
<g id="edge6" class="edge">
<title>kb_document&#45;&gt;kb_chunk</title>
<path fill="none" stroke="#555555" d="M1396.12,-456.35C1422.69,-455.98 1456.74,-455.51 1487.26,-455.08"/>
<polygon fill="#555555" stroke="#555555" points="1487.3,-458.58 1497.25,-454.94 1487.2,-451.58 1487.3,-458.58"/>
<text xml:space="preserve" text-anchor="middle" x="1455.66" y="-458.59" font-family="sans-serif" font-size="10.00">1:N</text>
</g>
<!-- workflow_def&#45;&gt;app -->
<g id="edge15" class="edge">
<title>workflow_def&#45;&gt;app</title>
<path fill="none" stroke="#888888" stroke-dasharray="5,2" d="M866.41,-167.13C833.58,-179.09 790.24,-198.09 757.74,-224 727.53,-248.08 701.8,-284.68 686.16,-309.88"/>
<polygon fill="#888888" stroke="#888888" points="683.26,-307.92 681.08,-318.29 689.25,-311.55 683.26,-307.92"/>
<text xml:space="preserve" text-anchor="middle" x="792.45" y="-227" font-family="sans-serif" font-size="10.00" fill="#888888">app_id</text>
</g>
<!-- workflow_run -->
<g id="node14" class="node">
<title>workflow_run</title>
<path fill="#f5f8fc" stroke="black" d="M1186.38,-170C1186.38,-170 1112.92,-170 1112.92,-170 1106.92,-170 1100.92,-164 1100.92,-158 1100.92,-158 1100.92,-146 1100.92,-146 1100.92,-140 1106.92,-134 1112.92,-134 1112.92,-134 1186.38,-134 1186.38,-134 1192.38,-134 1198.38,-140 1198.38,-146 1198.38,-146 1198.38,-158 1198.38,-158 1198.38,-164 1192.38,-170 1186.38,-170"/>
<text xml:space="preserve" text-anchor="middle" x="1149.65" y="-148.4" font-family="monospace" font-size="12.00">workflow_run</text>
</g>
<!-- workflow_def&#45;&gt;workflow_run -->
<g id="edge7" class="edge">
<title>workflow_def&#45;&gt;workflow_run</title>
<path fill="none" stroke="#555555" d="M964.1,-152C1000.38,-152 1050.46,-152 1089.29,-152"/>
<polygon fill="#555555" stroke="#555555" points="1088.92,-155.5 1098.92,-152 1088.92,-148.5 1088.92,-155.5"/>
<text xml:space="preserve" text-anchor="middle" x="1034.1" y="-155" font-family="sans-serif" font-size="10.00">1:N</text>
</g>
<!-- workflow_node_run -->
<g id="node15" class="node">
<title>workflow_node_run</title>
<path fill="#f5f8fc" stroke="black" d="M1400.16,-170C1400.16,-170 1297.38,-170 1297.38,-170 1291.38,-170 1285.38,-164 1285.38,-158 1285.38,-158 1285.38,-146 1285.38,-146 1285.38,-140 1291.38,-134 1297.38,-134 1297.38,-134 1400.16,-134 1400.16,-134 1406.16,-134 1412.16,-140 1412.16,-146 1412.16,-146 1412.16,-158 1412.16,-158 1412.16,-164 1406.16,-170 1400.16,-170"/>
<text xml:space="preserve" text-anchor="middle" x="1348.77" y="-148.4" font-family="monospace" font-size="12.00">workflow_node_run</text>
</g>
<!-- workflow_run&#45;&gt;workflow_node_run -->
<g id="edge8" class="edge">
<title>workflow_run&#45;&gt;workflow_node_run</title>
<path fill="none" stroke="#555555" d="M1198.87,-152C1221.41,-152 1248.74,-152 1273.81,-152"/>
<polygon fill="#555555" stroke="#555555" points="1273.63,-155.5 1283.63,-152 1273.63,-148.5 1273.63,-155.5"/>
<text xml:space="preserve" text-anchor="middle" x="1241.88" y="-155" font-family="sans-serif" font-size="10.00">1:N</text>
</g>
<!-- mcp_server -->
<g id="node17" class="node">
<title>mcp_server</title>
<path fill="#f5f8fc" stroke="black" d="M945.61,-260C945.61,-260 884.83,-260 884.83,-260 878.83,-260 872.83,-254 872.83,-248 872.83,-248 872.83,-236 872.83,-236 872.83,-230 878.83,-224 884.83,-224 884.83,-224 945.61,-224 945.61,-224 951.61,-224 957.61,-230 957.61,-236 957.61,-236 957.61,-248 957.61,-248 957.61,-254 951.61,-260 945.61,-260"/>
<text xml:space="preserve" text-anchor="middle" x="915.22" y="-238.4" font-family="monospace" font-size="12.00">mcp_server</text>
</g>
<!-- mcp_server&#45;&gt;tool -->
<g id="edge9" class="edge">
<title>mcp_server&#45;&gt;tool</title>
<path fill="none" stroke="#555555" d="M958.04,-242C1001.56,-242 1069.07,-242 1110.98,-242"/>
<polygon fill="#555555" stroke="#555555" points="1110.82,-245.5 1120.82,-242 1110.82,-238.5 1110.82,-245.5"/>
<text xml:space="preserve" text-anchor="middle" x="1034.1" y="-245" font-family="sans-serif" font-size="10.00">1:N (mcp only)</text>
</g>
<!-- llm_call_log -->
<g id="node18" class="node">
<title>llm_call_log</title>
<path fill="#f5f8fc" stroke="black" d="M124.45,-359.6C124.45,-359.6 28,-359.6 28,-359.6 22,-359.6 16,-353.6 16,-347.6 16,-347.6 16,-328.4 16,-328.4 16,-322.4 22,-316.4 28,-316.4 28,-316.4 124.45,-316.4 124.45,-316.4 130.45,-316.4 136.45,-322.4 136.45,-328.4 136.45,-328.4 136.45,-347.6 136.45,-347.6 136.45,-353.6 130.45,-359.6 124.45,-359.6"/>
<text xml:space="preserve" text-anchor="middle" x="76.23" y="-341.6" font-family="monospace" font-size="12.00">llm_call_log</text>
<text xml:space="preserve" text-anchor="middle" x="76.23" y="-327.2" font-family="monospace" font-size="12.00">(monthly partition)</text>
</g>
<!-- llm_call_log&#45;&gt;sys_user -->
<g id="edge20" class="edge">
<title>llm_call_log&#45;&gt;sys_user</title>
<path fill="none" stroke="#888888" stroke-dasharray="5,2" d="M119.37,-359.99C127.8,-364.73 136.51,-369.86 144.45,-375 178.64,-397.12 215.59,-425.48 240.87,-445.62"/>
<polygon fill="#888888" stroke="#888888" points="238.46,-448.17 248.45,-451.7 242.84,-442.71 238.46,-448.17"/>
<text xml:space="preserve" text-anchor="middle" x="187.17" y="-418.3" font-family="sans-serif" font-size="10.00" fill="#888888">user_id</text>
</g>
<!-- llm_call_log&#45;&gt;ai_model -->
<g id="edge19" class="edge">
<title>llm_call_log&#45;&gt;ai_model</title>
<path fill="none" stroke="#888888" stroke-dasharray="5,2" d="M79.26,-316.08C87.52,-241.18 125.51,0 271.96,0 271.96,0 271.96,0 670.01,0 740.57,0 819.16,-24.61 867.66,-42.82"/>
<polygon fill="#888888" stroke="#888888" points="866.12,-45.98 876.71,-46.29 868.63,-39.45 866.12,-45.98"/>
<text xml:space="preserve" text-anchor="middle" x="472.02" y="-3" font-family="sans-serif" font-size="10.00" fill="#888888">model_id</text>
</g>
<!-- llm_call_log&#45;&gt;app -->
<g id="edge18" class="edge">
<title>llm_call_log&#45;&gt;app</title>
<path fill="none" stroke="#888888" stroke-dasharray="5,2" d="M136.85,-338C258.19,-338 530.79,-338 630.53,-338"/>
<polygon fill="#888888" stroke="#888888" points="630.31,-341.5 640.31,-338 630.31,-334.5 630.31,-341.5"/>
<text xml:space="preserve" text-anchor="middle" x="367.49" y="-341" font-family="sans-serif" font-size="10.00" fill="#888888">app_id</text>
</g>
<!-- daily_usage -->
<g id="node19" class="node">
<title>daily_usage</title>
<path fill="#f5f8fc" stroke="black" d="M107.28,-425C107.28,-425 45.17,-425 45.17,-425 39.17,-425 33.17,-419 33.17,-413 33.17,-413 33.17,-401 33.17,-401 33.17,-395 39.17,-389 45.17,-389 45.17,-389 107.28,-389 107.28,-389 113.28,-389 119.28,-395 119.28,-401 119.28,-401 119.28,-413 119.28,-413 119.28,-419 113.28,-425 107.28,-425"/>
<text xml:space="preserve" text-anchor="middle" x="76.23" y="-403.4" font-family="monospace" font-size="12.00">daily_usage</text>
</g>
<!-- system_setting -->
<g id="node20" class="node">
<title>system_setting</title>
<path fill="#f5f8fc" stroke="black" d="M114.29,-537C114.29,-537 38.16,-537 38.16,-537 32.16,-537 26.16,-531 26.16,-525 26.16,-525 26.16,-513 26.16,-513 26.16,-507 32.16,-501 38.16,-501 38.16,-501 114.29,-501 114.29,-501 120.29,-501 126.29,-507 126.29,-513 126.29,-513 126.29,-525 126.29,-525 126.29,-531 120.29,-537 114.29,-537"/>
<text xml:space="preserve" text-anchor="middle" x="76.23" y="-515.4" font-family="monospace" font-size="12.00">system_setting</text>
</g>
</g>
</svg>

