<?xml version="1.0" encoding="UTF-8" standalone="no"?>
<!DOCTYPE svg PUBLIC "-//W3C//DTD SVG 1.1//EN"
 "http://www.w3.org/Graphics/SVG/1.1/DTD/svg11.dtd">
<!-- Generated by graphviz version 15.0.0 (0)
 -->
<!-- Title: hify_er Pages: 1 -->
<svg width="1635pt" height="473pt"
 viewBox="0.00 0.00 1635.00 473.00" xmlns="http://www.w3.org/2000/svg" xmlns:xlink="http://www.w3.org/1999/xlink">
<g id="graph0" class="graph" transform="scale(1 1) rotate(0) translate(4 469)">
<title>hify_er</title>
<polygon fill="white" stroke="none" points="-4,4 -4,-469 1630.91,-469 1630.91,4 -4,4"/>
<g id="clust1" class="cluster">
<title>cluster_identity</title>
<path fill="none" stroke="#9bb7d4" d="M241.89,-226C241.89,-226 304.02,-226 304.02,-226 310.02,-226 316.02,-232 316.02,-238 316.02,-238 316.02,-291 316.02,-291 316.02,-297 310.02,-303 304.02,-303 304.02,-303 241.89,-303 241.89,-303 235.89,-303 229.89,-297 229.89,-291 229.89,-291 229.89,-238 229.89,-238 229.89,-232 235.89,-226 241.89,-226"/>
<text xml:space="preserve" text-anchor="middle" x="272.96" y="-286.4" font-family="sans-serif" font-size="14.00">identity</text>
</g>
<g id="clust2" class="cluster">
<title>cluster_provider</title>
<path fill="none" stroke="#9bb7d4" d="M620.29,-373C620.29,-373 947.95,-373 947.95,-373 953.95,-373 959.95,-379 959.95,-385 959.95,-385 959.95,-443 959.95,-443 959.95,-449 953.95,-455 947.95,-455 947.95,-455 620.29,-455 620.29,-455 614.29,-455 608.29,-449 608.29,-443 608.29,-443 608.29,-385 608.29,-385 608.29,-379 614.29,-373 620.29,-373"/>
<text xml:space="preserve" text-anchor="middle" x="784.12" y="-438.4" font-family="sans-serif" font-size="14.00">provider</text>
</g>
<g id="clust3" class="cluster">
<title>cluster_app</title>
<path fill="none" stroke="#88b04b" d="M646.01,-8C646.01,-8 963.27,-8 963.27,-8 969.27,-8 975.27,-14 975.27,-20 975.27,-20 975.27,-203 975.27,-203 975.27,-209 969.27,-215 963.27,-215 963.27,-215 646.01,-215 646.01,-215 640.01,-215 634.01,-209 634.01,-203 634.01,-203 634.01,-20 634.01,-20 634.01,-14 640.01,-8 646.01,-8"/>
<text xml:space="preserve" text-anchor="middle" x="804.64" y="-198.4" font-family="sans-serif" font-size="14.00">app</text>
</g>
<g id="clust4" class="cluster">
<title>cluster_conversation</title>
<path fill="none" stroke="#e0a96d" d="M430.96,-223C430.96,-223 699.74,-223 699.74,-223 705.74,-223 711.74,-229 711.74,-235 711.74,-235 711.74,-293 711.74,-293 711.74,-299 705.74,-305 699.74,-305 699.74,-305 430.96,-305 430.96,-305 424.96,-305 418.96,-299 418.96,-293 418.96,-293 418.96,-235 418.96,-235 418.96,-229 424.96,-223 430.96,-223"/>
<text xml:space="preserve" text-anchor="middle" x="565.35" y="-288.4" font-family="sans-serif" font-size="14.00">conversation</text>
</g>
<g id="clust5" class="cluster">
<title>cluster_knowledge</title>
<path fill="none" stroke="#88b04b" d="M1101.48,-132C1101.48,-132 1606.91,-132 1606.91,-132 1612.91,-132 1618.91,-138 1618.91,-144 1618.91,-144 1618.91,-204 1618.91,-204 1618.91,-210 1612.91,-216 1606.91,-216 1606.91,-216 1101.48,-216 1101.48,-216 1095.48,-216 1089.48,-210 1089.48,-204 1089.48,-204 1089.48,-144 1089.48,-144 1089.48,-138 1095.48,-132 1101.48,-132"/>
<text xml:space="preserve" text-anchor="middle" x="1354.19" y="-199.4" font-family="sans-serif" font-size="14.00">knowledge</text>
</g>
<g id="clust6" class="cluster">
<title>cluster_workflow</title>
<path fill="none" stroke="#d98a8a" d="M870.83,-225C870.83,-225 1387.05,-225 1387.05,-225 1393.05,-225 1399.05,-231 1399.05,-237 1399.05,-237 1399.05,-295 1399.05,-295 1399.05,-301 1393.05,-307 1387.05,-307 1387.05,-307 870.83,-307 870.83,-307 864.83,-307 858.83,-301 858.83,-295 858.83,-295 858.83,-237 858.83,-237 858.83,-231 864.83,-225 870.83,-225"/>
<text xml:space="preserve" text-anchor="middle" x="1128.94" y="-290.4" font-family="sans-serif" font-size="14.00">workflow</text>
</g>
<g id="clust7" class="cluster">
<title>cluster_tool</title>
<path fill="none" stroke="#9bb7d4" d="M1105.54,-47C1105.54,-47 1151.54,-47 1151.54,-47 1157.54,-47 1163.54,-53 1163.54,-59 1163.54,-59 1163.54,-112 1163.54,-112 1163.54,-118 1157.54,-124 1151.54,-124 1151.54,-124 1105.54,-124 1105.54,-124 1099.54,-124 1093.54,-118 1093.54,-112 1093.54,-112 1093.54,-59 1093.54,-59 1093.54,-53 1099.54,-47 1105.54,-47"/>
<text xml:space="preserve" text-anchor="middle" x="1128.54" y="-107.4" font-family="sans-serif" font-size="14.00">tool</text>
</g>
<g id="clust8" class="cluster">
<title>cluster_usage</title>
<path fill="none" stroke="#b0a8c9" d="M20,-222C20,-222 132.45,-222 132.45,-222 138.45,-222 144.45,-228 144.45,-234 144.45,-234 144.45,-360 144.45,-360 144.45,-366 138.45,-372 132.45,-372 132.45,-372 20,-372 20,-372 14,-372 8,-366 8,-360 8,-360 8,-234 8,-234 8,-228 14,-222 20,-222"/>
<text xml:space="preserve" text-anchor="middle" x="76.23" y="-355.4" font-family="sans-serif" font-size="14.00">usage</text>
</g>
<g id="clust9" class="cluster">
<title>cluster_system</title>
<path fill="none" stroke="#cccccc" d="M30.16,-380C30.16,-380 122.29,-380 122.29,-380 128.29,-380 134.29,-386 134.29,-392 134.29,-392 134.29,-445 134.29,-445 134.29,-451 128.29,-457 122.29,-457 122.29,-457 30.16,-457 30.16,-457 24.16,-457 18.16,-451 18.16,-445 18.16,-445 18.16,-392 18.16,-392 18.16,-386 24.16,-380 30.16,-380"/>
<text xml:space="preserve" text-anchor="middle" x="76.23" y="-440.4" font-family="sans-serif" font-size="14.00">system</text>
</g>
<!-- sys_user -->
<g id="node1" class="node">
<title>sys_user</title>
<path fill="#f5f8fc" stroke="black" d="M296.02,-270C296.02,-270 249.89,-270 249.89,-270 243.89,-270 237.89,-264 237.89,-258 237.89,-258 237.89,-246 237.89,-246 237.89,-240 243.89,-234 249.89,-234 249.89,-234 296.02,-234 296.02,-234 302.02,-234 308.02,-240 308.02,-246 308.02,-246 308.02,-258 308.02,-258 308.02,-264 302.02,-270 296.02,-270"/>
<text xml:space="preserve" text-anchor="middle" x="272.96" y="-248.4" font-family="monospace" font-size="12.00">sys_user</text>
</g>
<!-- conversation -->
<g id="node8" class="node">
<title>conversation</title>
<path fill="#f5f8fc" stroke="black" d="M505.07,-270C505.07,-270 438.96,-270 438.96,-270 432.96,-270 426.96,-264 426.96,-258 426.96,-258 426.96,-246 426.96,-246 426.96,-240 432.96,-234 438.96,-234 438.96,-234 505.07,-234 505.07,-234 511.07,-234 517.07,-240 517.07,-246 517.07,-246 517.07,-258 517.07,-258 517.07,-264 511.07,-270 505.07,-270"/>
<text xml:space="preserve" text-anchor="middle" x="472.02" y="-248.4" font-family="monospace" font-size="12.00">conversation</text>
</g>
<!-- sys_user&#45;&gt;conversation -->
<g id="edge16" class="edge">
<title>sys_user&#45;&gt;conversation</title>
<path fill="none" stroke="#888888" stroke-dasharray="5,2" d="M319.63,-252C351.86,-252 394.8,-252 426.72,-252"/>
<polygon fill="#888888" stroke="#888888" points="319.8,-248.5 309.8,-252 319.8,-255.5 319.8,-248.5"/>
<text xml:space="preserve" text-anchor="middle" x="367.49" y="-255" font-family="sans-serif" font-size="10.00" fill="#888888">1:N user_id</text>
</g>
<!-- model_provider -->
<g id="node2" class="node">
<title>model_provider</title>
<path fill="#f5f8fc" stroke="black" d="M709.74,-422C709.74,-422 628.29,-422 628.29,-422 622.29,-422 616.29,-416 616.29,-410 616.29,-410 616.29,-398 616.29,-398 616.29,-392 622.29,-386 628.29,-386 628.29,-386 709.74,-386 709.74,-386 715.74,-386 721.74,-392 721.74,-398 721.74,-398 721.74,-410 721.74,-410 721.74,-416 715.74,-422 709.74,-422"/>
<text xml:space="preserve" text-anchor="middle" x="669.01" y="-400.4" font-family="monospace" font-size="12.00">model_provider</text>
</g>
<!-- ai_model -->
<g id="node3" class="node">
<title>ai_model</title>
<path fill="#f5f8fc" stroke="black" d="M939.95,-417C939.95,-417 890.49,-417 890.49,-417 884.49,-417 878.49,-411 878.49,-405 878.49,-405 878.49,-393 878.49,-393 878.49,-387 884.49,-381 890.49,-381 890.49,-381 939.95,-381 939.95,-381 945.95,-381 951.95,-387 951.95,-393 951.95,-393 951.95,-405 951.95,-405 951.95,-411 945.95,-417 939.95,-417"/>
<text xml:space="preserve" text-anchor="middle" x="915.22" y="-395.4" font-family="monospace" font-size="12.00">ai_model</text>
</g>
<!-- model_provider&#45;&gt;ai_model -->
<g id="edge1" class="edge">
<title>model_provider&#45;&gt;ai_model</title>
<path fill="none" stroke="#555555" d="M722.1,-402.93C764.9,-402.06 825.04,-400.83 866.58,-399.98"/>
<polygon fill="#555555" stroke="#555555" points="866.6,-403.48 876.53,-399.77 866.46,-396.48 866.6,-403.48"/>
<text xml:space="preserve" text-anchor="middle" x="792.45" y="-405.09" font-family="sans-serif" font-size="10.00">1:N</text>
</g>
<!-- app -->
<g id="node4" class="node">
<title>app</title>
<path fill="#f5f8fc" stroke="black" d="M684.01,-182C684.01,-182 654.01,-182 654.01,-182 648.01,-182 642.01,-176 642.01,-170 642.01,-170 642.01,-158 642.01,-158 642.01,-152 648.01,-146 654.01,-146 654.01,-146 684.01,-146 684.01,-146 690.01,-146 696.01,-152 696.01,-158 696.01,-158 696.01,-170 696.01,-170 696.01,-176 690.01,-182 684.01,-182"/>
<text xml:space="preserve" text-anchor="middle" x="669.01" y="-160.4" font-family="monospace" font-size="12.00">app</text>
</g>
<!-- app&#45;&gt;ai_model -->
<g id="edge10" class="edge">
<title>app&#45;&gt;ai_model</title>
<path fill="none" stroke="#888888" stroke-dasharray="5,2" d="M689.24,-182.26C699.23,-192 711.45,-204.36 721.74,-216 738.92,-235.46 738.67,-244.38 757.74,-262 784.92,-287.12 798.77,-284.26 827.17,-308 850.77,-327.73 874.73,-353.27 891.52,-372.26"/>
<polygon fill="#888888" stroke="#888888" points="888.72,-374.38 897.93,-379.61 893.99,-369.77 888.72,-374.38"/>
<text xml:space="preserve" text-anchor="middle" x="792.45" y="-311" font-family="sans-serif" font-size="10.00" fill="#888888">model_id</text>
</g>
<!-- app_api_key -->
<g id="node5" class="node">
<title>app_api_key</title>
<path fill="#f5f8fc" stroke="black" d="M948.28,-52C948.28,-52 882.16,-52 882.16,-52 876.16,-52 870.16,-46 870.16,-40 870.16,-40 870.16,-28 870.16,-28 870.16,-22 876.16,-16 882.16,-16 882.16,-16 948.28,-16 948.28,-16 954.28,-16 960.28,-22 960.28,-28 960.28,-28 960.28,-40 960.28,-40 960.28,-46 954.28,-52 948.28,-52"/>
<text xml:space="preserve" text-anchor="middle" x="915.22" y="-30.4" font-family="monospace" font-size="12.00">app_api_key</text>
</g>
<!-- app&#45;&gt;app_api_key -->
<g id="edge2" class="edge">
<title>app&#45;&gt;app_api_key</title>
<path fill="none" stroke="#555555" d="M695.02,-145.55C712.2,-133.29 735.78,-117.25 757.74,-105 790.48,-86.73 828.79,-69.28 859.31,-56.26"/>
<polygon fill="#555555" stroke="#555555" points="860.51,-59.55 868.36,-52.43 857.79,-53.1 860.51,-59.55"/>
<text xml:space="preserve" text-anchor="middle" x="792.45" y="-108" font-family="sans-serif" font-size="10.00">1:N</text>
</g>
<!-- app_dataset_rel -->
<g id="node6" class="node">
<title>app_dataset_rel</title>
<path fill="#f5f8fc" stroke="black" d="M955.27,-182C955.27,-182 875.17,-182 875.17,-182 869.17,-182 863.17,-176 863.17,-170 863.17,-170 863.17,-158 863.17,-158 863.17,-152 869.17,-146 875.17,-146 875.17,-146 955.27,-146 955.27,-146 961.27,-146 967.27,-152 967.27,-158 967.27,-158 967.27,-170 967.27,-170 967.27,-176 961.27,-182 955.27,-182"/>
<text xml:space="preserve" text-anchor="middle" x="915.22" y="-160.4" font-family="monospace" font-size="12.00">app_dataset_rel</text>
</g>
<!-- app&#45;&gt;app_dataset_rel -->
<g id="edge3" class="edge">
<title>app&#45;&gt;app_dataset_rel</title>
<path fill="none" stroke="#555555" d="M696.5,-163.24C713.9,-162.78 737.17,-162.23 757.74,-162 788.59,-161.65 796.31,-161.65 827.17,-162 835.17,-162.09 843.59,-162.23 851.9,-162.39"/>
<polygon fill="#555555" stroke="#555555" points="851.55,-165.89 861.62,-162.6 851.69,-158.89 851.55,-165.89"/>
<text xml:space="preserve" text-anchor="middle" x="792.45" y="-165" font-family="sans-serif" font-size="10.00">1:N</text>
</g>
<!-- app_tool_rel -->
<g id="node7" class="node">
<title>app_tool_rel</title>
<path fill="#f5f8fc" stroke="black" d="M947.95,-117C947.95,-117 882.49,-117 882.49,-117 876.49,-117 870.49,-111 870.49,-105 870.49,-105 870.49,-93 870.49,-93 870.49,-87 876.49,-81 882.49,-81 882.49,-81 947.95,-81 947.95,-81 953.95,-81 959.95,-87 959.95,-93 959.95,-93 959.95,-105 959.95,-105 959.95,-111 953.95,-117 947.95,-117"/>
<text xml:space="preserve" text-anchor="middle" x="915.22" y="-95.4" font-family="monospace" font-size="12.00">app_tool_rel</text>
</g>
<!-- app&#45;&gt;app_tool_rel -->
<g id="edge4" class="edge">
<title>app&#45;&gt;app_tool_rel</title>
<path fill="none" stroke="#555555" d="M696.15,-157.04C734.89,-146.73 808.47,-127.15 859.37,-113.6"/>
<polygon fill="#555555" stroke="#555555" points="859.96,-117.06 868.73,-111.11 858.16,-110.3 859.96,-117.06"/>
<text xml:space="preserve" text-anchor="middle" x="792.45" y="-142.23" font-family="sans-serif" font-size="10.00">1:N</text>
</g>
<!-- workflow_def -->
<g id="node13" class="node">
<title>workflow_def</title>
<path fill="#f5f8fc" stroke="black" d="M951.61,-274C951.61,-274 878.83,-274 878.83,-274 872.83,-274 866.83,-268 866.83,-262 866.83,-262 866.83,-250 866.83,-250 866.83,-244 872.83,-238 878.83,-238 878.83,-238 951.61,-238 951.61,-238 957.61,-238 963.61,-244 963.61,-250 963.61,-250 963.61,-262 963.61,-262 963.61,-268 957.61,-274 951.61,-274"/>
<text xml:space="preserve" text-anchor="middle" x="915.22" y="-252.4" font-family="monospace" font-size="12.00">workflow_def</text>
</g>
<!-- app&#45;&gt;workflow_def -->
<g id="edge13" class="edge">
<title>app&#45;&gt;workflow_def</title>
<path fill="none" stroke="#888888" stroke-dasharray="5,2" d="M696.49,-169.45C728.24,-176.42 782.72,-189.81 827.17,-208 843.39,-214.64 860.44,-223.56 875.11,-231.92"/>
<polygon fill="#888888" stroke="#888888" points="873.14,-234.82 883.54,-236.81 876.65,-228.76 873.14,-234.82"/>
<text xml:space="preserve" text-anchor="middle" x="792.45" y="-211" font-family="sans-serif" font-size="10.00" fill="#888888">published_def_id</text>
</g>
<!-- dataset -->
<g id="node10" class="node">
<title>dataset</title>
<path fill="#f5f8fc" stroke="black" d="M1147.6,-182C1147.6,-182 1109.48,-182 1109.48,-182 1103.48,-182 1097.48,-176 1097.48,-170 1097.48,-170 1097.48,-158 1097.48,-158 1097.48,-152 1103.48,-146 1109.48,-146 1109.48,-146 1147.6,-146 1147.6,-146 1153.6,-146 1159.6,-152 1159.6,-158 1159.6,-158 1159.6,-170 1159.6,-170 1159.6,-176 1153.6,-182 1147.6,-182"/>
<text xml:space="preserve" text-anchor="middle" x="1128.54" y="-160.4" font-family="monospace" font-size="12.00">dataset</text>
</g>
<!-- app_dataset_rel&#45;&gt;dataset -->
<g id="edge11" class="edge">
<title>app_dataset_rel&#45;&gt;dataset</title>
<path fill="none" stroke="#888888" stroke-dasharray="5,2" d="M967.64,-164C1003.93,-164 1051.92,-164 1085.82,-164"/>
<polygon fill="#888888" stroke="#888888" points="1085.67,-167.5 1095.67,-164 1085.67,-160.5 1085.67,-167.5"/>
<text xml:space="preserve" text-anchor="middle" x="1023.54" y="-167" font-family="sans-serif" font-size="10.00" fill="#888888">dataset_id</text>
</g>
<!-- tool -->
<g id="node16" class="node">
<title>tool</title>
<path fill="#f5f8fc" stroke="black" d="M1143.54,-91C1143.54,-91 1113.54,-91 1113.54,-91 1107.54,-91 1101.54,-85 1101.54,-79 1101.54,-79 1101.54,-67 1101.54,-67 1101.54,-61 1107.54,-55 1113.54,-55 1113.54,-55 1143.54,-55 1143.54,-55 1149.54,-55 1155.54,-61 1155.54,-67 1155.54,-67 1155.54,-79 1155.54,-79 1155.54,-85 1149.54,-91 1143.54,-91"/>
<text xml:space="preserve" text-anchor="middle" x="1128.54" y="-69.4" font-family="monospace" font-size="12.00">tool</text>
</g>
<!-- app_tool_rel&#45;&gt;tool -->
<g id="edge12" class="edge">
<title>app_tool_rel&#45;&gt;tool</title>
<path fill="none" stroke="#888888" stroke-dasharray="5,2" d="M960.26,-93.58C998.68,-88.85 1053.81,-82.07 1090.13,-77.6"/>
<polygon fill="#888888" stroke="#888888" points="1090.22,-81.12 1099.71,-76.42 1089.36,-74.17 1090.22,-81.12"/>
<text xml:space="preserve" text-anchor="middle" x="1023.54" y="-90.56" font-family="sans-serif" font-size="10.00" fill="#888888">tool_id</text>
</g>
<!-- conversation&#45;&gt;app -->
<g id="edge15" class="edge">
<title>conversation&#45;&gt;app</title>
<path fill="none" stroke="#888888" stroke-dasharray="5,2" d="M513.9,-233.55C548.56,-217.91 597.84,-195.67 631.27,-180.58"/>
<polygon fill="#888888" stroke="#888888" points="632.48,-183.88 640.15,-176.57 629.6,-177.5 632.48,-183.88"/>
<text xml:space="preserve" text-anchor="middle" x="566.68" y="-216.27" font-family="sans-serif" font-size="10.00" fill="#888888">app_id</text>
</g>
<!-- message -->
<g id="node9" class="node">
<title>message</title>
<path fill="#f5f8fc" stroke="black" d="M691.74,-272C691.74,-272 646.29,-272 646.29,-272 640.29,-272 634.29,-266 634.29,-260 634.29,-260 634.29,-248 634.29,-248 634.29,-242 640.29,-236 646.29,-236 646.29,-236 691.74,-236 691.74,-236 697.74,-236 703.74,-242 703.74,-248 703.74,-248 703.74,-260 703.74,-260 703.74,-266 697.74,-272 691.74,-272"/>
<text xml:space="preserve" text-anchor="middle" x="669.01" y="-250.4" font-family="monospace" font-size="12.00">message</text>
</g>
<!-- conversation&#45;&gt;message -->
<g id="edge9" class="edge">
<title>conversation&#45;&gt;message</title>
<path fill="none" stroke="#555555" d="M517.27,-252.45C548.79,-252.78 591.03,-253.21 622.77,-253.54"/>
<polygon fill="#555555" stroke="#555555" points="622.41,-257.03 632.44,-253.64 622.48,-250.03 622.41,-257.03"/>
<text xml:space="preserve" text-anchor="middle" x="566.68" y="-256.06" font-family="sans-serif" font-size="10.00">1:N</text>
</g>
<!-- kb_document -->
<g id="node11" class="node">
<title>kb_document</title>
<path fill="#f5f8fc" stroke="black" d="M1362.72,-183C1362.72,-183 1292.6,-183 1292.6,-183 1286.6,-183 1280.6,-177 1280.6,-171 1280.6,-171 1280.6,-159 1280.6,-159 1280.6,-153 1286.6,-147 1292.6,-147 1292.6,-147 1362.72,-147 1362.72,-147 1368.72,-147 1374.72,-153 1374.72,-159 1374.72,-159 1374.72,-171 1374.72,-171 1374.72,-177 1368.72,-183 1362.72,-183"/>
<text xml:space="preserve" text-anchor="middle" x="1327.66" y="-161.4" font-family="monospace" font-size="12.00">kb_document</text>
</g>
<!-- dataset&#45;&gt;kb_document -->
<g id="edge5" class="edge">
<title>dataset&#45;&gt;kb_document</title>
<path fill="none" stroke="#555555" d="M1159.91,-164.15C1188.85,-164.3 1233.18,-164.53 1268.86,-164.71"/>
<polygon fill="#555555" stroke="#555555" points="1268.58,-168.21 1278.59,-164.76 1268.61,-161.21 1268.58,-168.21"/>
<text xml:space="preserve" text-anchor="middle" x="1220.77" y="-167.5" font-family="sans-serif" font-size="10.00">1:N</text>
</g>
<!-- kb_chunk -->
<g id="node12" class="node">
<title>kb_chunk</title>
<path fill="#f5f8fc" stroke="black" d="M1598.91,-183.6C1598.91,-183.6 1490.05,-183.6 1490.05,-183.6 1484.05,-183.6 1478.05,-177.6 1478.05,-171.6 1478.05,-171.6 1478.05,-152.4 1478.05,-152.4 1478.05,-146.4 1484.05,-140.4 1490.05,-140.4 1490.05,-140.4 1598.91,-140.4 1598.91,-140.4 1604.91,-140.4 1610.91,-146.4 1610.91,-152.4 1610.91,-152.4 1610.91,-171.6 1610.91,-171.6 1610.91,-177.6 1604.91,-183.6 1598.91,-183.6"/>
<text xml:space="preserve" text-anchor="middle" x="1544.48" y="-165.6" font-family="monospace" font-size="12.00">kb_chunk</text>
<text xml:space="preserve" text-anchor="middle" x="1544.48" y="-151.2" font-family="monospace" font-size="12.00">(+ embedding vector)</text>
</g>
<!-- kb_document&#45;&gt;kb_chunk -->
<g id="edge6" class="edge">
<title>kb_document&#45;&gt;kb_chunk</title>
<path fill="none" stroke="#555555" d="M1375,-164.35C1401.58,-163.98 1435.63,-163.51 1466.15,-163.08"/>
<polygon fill="#555555" stroke="#555555" points="1466.19,-166.58 1476.14,-162.94 1466.09,-159.58 1466.19,-166.58"/>
<text xml:space="preserve" text-anchor="middle" x="1434.55" y="-166.59" font-family="sans-serif" font-size="10.00">1:N</text>
</g>
<!-- workflow_def&#45;&gt;app -->
<g id="edge14" class="edge">
<title>workflow_def&#45;&gt;app</title>
<path fill="none" stroke="#888888" stroke-dasharray="5,2" d="M866.58,-250.79C834.82,-246.16 792.64,-237.76 757.74,-223 737.53,-214.46 717.07,-201.03 700.99,-189.14"/>
<polygon fill="#888888" stroke="#888888" points="703.36,-186.54 693.28,-183.28 699.12,-192.11 703.36,-186.54"/>
<text xml:space="preserve" text-anchor="middle" x="792.45" y="-246.26" font-family="sans-serif" font-size="10.00" fill="#888888">app_id</text>
</g>
<!-- workflow_run -->
<g id="node14" class="node">
<title>workflow_run</title>
<path fill="#f5f8fc" stroke="black" d="M1165.27,-274C1165.27,-274 1091.81,-274 1091.81,-274 1085.81,-274 1079.81,-268 1079.81,-262 1079.81,-262 1079.81,-250 1079.81,-250 1079.81,-244 1085.81,-238 1091.81,-238 1091.81,-238 1165.27,-238 1165.27,-238 1171.27,-238 1177.27,-244 1177.27,-250 1177.27,-250 1177.27,-262 1177.27,-262 1177.27,-268 1171.27,-274 1165.27,-274"/>
<text xml:space="preserve" text-anchor="middle" x="1128.54" y="-252.4" font-family="monospace" font-size="12.00">workflow_run</text>
</g>
<!-- workflow_def&#45;&gt;workflow_run -->
<g id="edge7" class="edge">
<title>workflow_def&#45;&gt;workflow_run</title>
<path fill="none" stroke="#555555" d="M963.91,-256C994.83,-256 1035.35,-256 1068.34,-256"/>
<polygon fill="#555555" stroke="#555555" points="1068.15,-259.5 1078.15,-256 1068.15,-252.5 1068.15,-259.5"/>
<text xml:space="preserve" text-anchor="middle" x="1023.54" y="-259" font-family="sans-serif" font-size="10.00">1:N</text>
</g>
<!-- workflow_node_run -->
<g id="node15" class="node">
<title>workflow_node_run</title>
<path fill="#f5f8fc" stroke="black" d="M1379.05,-274C1379.05,-274 1276.27,-274 1276.27,-274 1270.27,-274 1264.27,-268 1264.27,-262 1264.27,-262 1264.27,-250 1264.27,-250 1264.27,-244 1270.27,-238 1276.27,-238 1276.27,-238 1379.05,-238 1379.05,-238 1385.05,-238 1391.05,-244 1391.05,-250 1391.05,-250 1391.05,-262 1391.05,-262 1391.05,-268 1385.05,-274 1379.05,-274"/>
<text xml:space="preserve" text-anchor="middle" x="1327.66" y="-252.4" font-family="monospace" font-size="12.00">workflow_node_run</text>
</g>
<!-- workflow_run&#45;&gt;workflow_node_run -->
<g id="edge8" class="edge">
<title>workflow_run&#45;&gt;workflow_node_run</title>
<path fill="none" stroke="#555555" d="M1177.76,-256C1200.29,-256 1227.63,-256 1252.7,-256"/>
<polygon fill="#555555" stroke="#555555" points="1252.52,-259.5 1262.52,-256 1252.52,-252.5 1252.52,-259.5"/>
<text xml:space="preserve" text-anchor="middle" x="1220.77" y="-259" font-family="sans-serif" font-size="10.00">1:N</text>
</g>
<!-- llm_call_log -->
<g id="node17" class="node">
<title>llm_call_log</title>
<path fill="#f5f8fc" stroke="black" d="M124.45,-273.6C124.45,-273.6 28,-273.6 28,-273.6 22,-273.6 16,-267.6 16,-261.6 16,-261.6 16,-242.4 16,-242.4 16,-236.4 22,-230.4 28,-230.4 28,-230.4 124.45,-230.4 124.45,-230.4 130.45,-230.4 136.45,-236.4 136.45,-242.4 136.45,-242.4 136.45,-261.6 136.45,-261.6 136.45,-267.6 130.45,-273.6 124.45,-273.6"/>
<text xml:space="preserve" text-anchor="middle" x="76.23" y="-255.6" font-family="monospace" font-size="12.00">llm_call_log</text>
<text xml:space="preserve" text-anchor="middle" x="76.23" y="-241.2" font-family="monospace" font-size="12.00">(monthly partition)</text>
</g>
<!-- llm_call_log&#45;&gt;sys_user -->
<g id="edge19" class="edge">
<title>llm_call_log&#45;&gt;sys_user</title>
<path fill="none" stroke="#888888" stroke-dasharray="5,2" d="M136.71,-252C165.45,-252 199.41,-252 226.11,-252"/>
<polygon fill="#888888" stroke="#888888" points="225.93,-255.5 235.93,-252 225.93,-248.5 225.93,-255.5"/>
<text xml:space="preserve" text-anchor="middle" x="187.17" y="-255" font-family="sans-serif" font-size="10.00" fill="#888888">user_id</text>
</g>
<!-- llm_call_log&#45;&gt;ai_model -->
<g id="edge18" class="edge">
<title>llm_call_log&#45;&gt;ai_model</title>
<path fill="none" stroke="#888888" stroke-dasharray="5,2" d="M119.83,-274.02C172.1,-300.66 255.8,-342 271.96,-342 271.96,-342 271.96,-342 670.01,-342 740.09,-342 818.59,-364.53 867.21,-381.27"/>
<polygon fill="#888888" stroke="#888888" points="865.99,-384.55 876.59,-384.55 868.31,-377.94 865.99,-384.55"/>
<text xml:space="preserve" text-anchor="middle" x="472.02" y="-345" font-family="sans-serif" font-size="10.00" fill="#888888">model_id</text>
</g>
<!-- llm_call_log&#45;&gt;app -->
<g id="edge17" class="edge">
<title>llm_call_log&#45;&gt;app</title>
<path fill="none" stroke="#888888" stroke-dasharray="5,2" d="M136.81,-237.85C164.93,-231.5 199.02,-224.26 229.89,-219 377.3,-193.87 554.44,-175.1 630.42,-167.59"/>
<polygon fill="#888888" stroke="#888888" points="630.61,-171.09 640.22,-166.63 629.92,-164.12 630.61,-171.09"/>
<text xml:space="preserve" text-anchor="middle" x="367.49" y="-204.27" font-family="sans-serif" font-size="10.00" fill="#888888">app_id</text>
</g>
<!-- daily_usage -->
<g id="node18" class="node">
<title>daily_usage</title>
<path fill="#f5f8fc" stroke="black" d="M107.28,-339C107.28,-339 45.17,-339 45.17,-339 39.17,-339 33.17,-333 33.17,-327 33.17,-327 33.17,-315 33.17,-315 33.17,-309 39.17,-303 45.17,-303 45.17,-303 107.28,-303 107.28,-303 113.28,-303 119.28,-309 119.28,-315 119.28,-315 119.28,-327 119.28,-327 119.28,-333 113.28,-339 107.28,-339"/>
<text xml:space="preserve" text-anchor="middle" x="76.23" y="-317.4" font-family="monospace" font-size="12.00">daily_usage</text>
</g>
<!-- system_setting -->
<g id="node19" class="node">
<title>system_setting</title>
<path fill="#f5f8fc" stroke="black" d="M114.29,-424C114.29,-424 38.16,-424 38.16,-424 32.16,-424 26.16,-418 26.16,-412 26.16,-412 26.16,-400 26.16,-400 26.16,-394 32.16,-388 38.16,-388 38.16,-388 114.29,-388 114.29,-388 120.29,-388 126.29,-394 126.29,-400 126.29,-400 126.29,-412 126.29,-412 126.29,-418 120.29,-424 114.29,-424"/>
<text xml:space="preserve" text-anchor="middle" x="76.23" y="-402.4" font-family="monospace" font-size="12.00">system_setting</text>
</g>
</g>
</svg>

