<?xml version="1.0" encoding="UTF-8" standalone="no"?>
<!DOCTYPE svg PUBLIC "-//W3C//DTD SVG 1.1//EN"
 "http://www.w3.org/Graphics/SVG/1.1/DTD/svg11.dtd">
<!-- Generated by graphviz version 15.0.0 (0)
 -->
<!-- Title: hify_modules Pages: 1 -->
<svg width="799pt" height="487pt"
 viewBox="0.00 0.00 799.00 487.00" xmlns="http://www.w3.org/2000/svg" xmlns:xlink="http://www.w3.org/1999/xlink">
<g id="graph0" class="graph" transform="scale(1 1) rotate(0) translate(4 483.4)">
<title>hify_modules</title>
<polygon fill="white" stroke="none" points="-4,4 -4,-483.4 794.9,-483.4 794.9,4 -4,4"/>
<!-- workflow -->
<g id="node1" class="node">
<title>workflow</title>
<path fill="#fde2e2" stroke="black" d="M518.12,-479.4C518.12,-479.4 424.51,-479.4 424.51,-479.4 418.51,-479.4 412.51,-473.4 412.51,-467.4 412.51,-467.4 412.51,-442.92 412.51,-442.92 412.51,-436.92 418.51,-430.92 424.51,-430.92 424.51,-430.92 518.12,-430.92 518.12,-430.92 524.12,-430.92 530.12,-436.92 530.12,-442.92 530.12,-442.92 530.12,-467.4 530.12,-467.4 530.12,-473.4 524.12,-479.4 518.12,-479.4"/>
<text xml:space="preserve" text-anchor="middle" x="471.32" y="-459.06" font-family="sans-serif" font-size="13.00">workflow</text>
<text xml:space="preserve" text-anchor="middle" x="471.32" y="-443.46" font-family="sans-serif" font-size="13.00">画布/节点执行引擎</text>
</g>
<!-- conversation -->
<g id="node2" class="node">
<title>conversation</title>
<path fill="#fdf0d8" stroke="black" d="M406.06,-368.92C406.06,-368.92 296.57,-368.92 296.57,-368.92 290.57,-368.92 284.57,-362.92 284.57,-356.92 284.57,-356.92 284.57,-332.44 284.57,-332.44 284.57,-326.44 290.57,-320.44 296.57,-320.44 296.57,-320.44 406.06,-320.44 406.06,-320.44 412.06,-320.44 418.06,-326.44 418.06,-332.44 418.06,-332.44 418.06,-356.92 418.06,-356.92 418.06,-362.92 412.06,-368.92 406.06,-368.92"/>
<text xml:space="preserve" text-anchor="middle" x="351.32" y="-348.58" font-family="sans-serif" font-size="13.00">conversation</text>
<text xml:space="preserve" text-anchor="middle" x="351.32" y="-332.98" font-family="sans-serif" font-size="13.00">会话/记忆/Agent编排</text>
</g>
<!-- workflow&#45;&gt;conversation -->
<g id="edge1" class="edge">
<title>workflow&#45;&gt;conversation</title>
<path fill="none" stroke="#555555" d="M437.28,-430.49C427.19,-423 416.32,-414.44 406.88,-405.92 397.26,-397.24 387.44,-387.1 378.8,-377.65"/>
<polygon fill="#555555" stroke="#555555" points="381.52,-375.45 372.24,-370.35 376.32,-380.13 381.52,-375.45"/>
<text xml:space="preserve" text-anchor="middle" x="434.1" y="-396.92" font-family="sans-serif" font-size="10.00">Agent调用节点</text>
</g>
<!-- app -->
<g id="node3" class="node">
<title>app</title>
<path fill="#e8f4d9" stroke="black" d="M569.43,-258.44C569.43,-258.44 459.21,-258.44 459.21,-258.44 453.21,-258.44 447.21,-252.44 447.21,-246.44 447.21,-246.44 447.21,-221.96 447.21,-221.96 447.21,-215.96 453.21,-209.96 459.21,-209.96 459.21,-209.96 569.43,-209.96 569.43,-209.96 575.43,-209.96 581.43,-215.96 581.43,-221.96 581.43,-221.96 581.43,-246.44 581.43,-246.44 581.43,-252.44 575.43,-258.44 569.43,-258.44"/>
<text xml:space="preserve" text-anchor="middle" x="514.32" y="-238.1" font-family="sans-serif" font-size="13.00">app</text>
<text xml:space="preserve" text-anchor="middle" x="514.32" y="-222.5" font-family="sans-serif" font-size="13.00">应用元数据/API Key</text>
</g>
<!-- workflow&#45;&gt;app -->
<g id="edge2" class="edge">
<title>workflow&#45;&gt;app</title>
<path fill="none" stroke="#555555" d="M475.92,-430.73C483.5,-392.14 498.64,-315.03 507.48,-270.04"/>
<polygon fill="#555555" stroke="#555555" points="510.9,-270.77 509.39,-260.28 504.03,-269.42 510.9,-270.77"/>
</g>
<!-- knowledge -->
<g id="node4" class="node">
<title>knowledge</title>
<path fill="#e8f4d9" stroke="black" d="M137.93,-258.44C137.93,-258.44 40.71,-258.44 40.71,-258.44 34.71,-258.44 28.71,-252.44 28.71,-246.44 28.71,-246.44 28.71,-221.96 28.71,-221.96 28.71,-215.96 34.71,-209.96 40.71,-209.96 40.71,-209.96 137.93,-209.96 137.93,-209.96 143.93,-209.96 149.93,-215.96 149.93,-221.96 149.93,-221.96 149.93,-246.44 149.93,-246.44 149.93,-252.44 143.93,-258.44 137.93,-258.44"/>
<text xml:space="preserve" text-anchor="middle" x="89.32" y="-238.1" font-family="sans-serif" font-size="13.00">knowledge</text>
<text xml:space="preserve" text-anchor="middle" x="89.32" y="-222.5" font-family="sans-serif" font-size="13.00">知识库/向量化/检索</text>
</g>
<!-- workflow&#45;&gt;knowledge -->
<g id="edge4" class="edge">
<title>workflow&#45;&gt;knowledge</title>
<path fill="none" stroke="#555555" d="M412.31,-438.21C363.09,-423.68 291.94,-399.79 234.32,-368.92 186.02,-343.04 174.33,-333.92 135.32,-295.44 126.89,-287.12 118.7,-277.21 111.62,-267.85"/>
<polygon fill="#555555" stroke="#555555" points="114.58,-265.97 105.85,-259.97 108.94,-270.11 114.58,-265.97"/>
<text xml:space="preserve" text-anchor="middle" x="249.32" y="-341.68" font-family="sans-serif" font-size="10.00">检索节点</text>
</g>
<!-- provider -->
<g id="node6" class="node">
<title>provider</title>
<path fill="#dceefb" stroke="black" d="M290.66,-147.96C290.66,-147.96 169.97,-147.96 169.97,-147.96 163.97,-147.96 157.97,-141.96 157.97,-135.96 157.97,-135.96 157.97,-111.48 157.97,-111.48 157.97,-105.48 163.97,-99.48 169.97,-99.48 169.97,-99.48 290.66,-99.48 290.66,-99.48 296.66,-99.48 302.66,-105.48 302.66,-111.48 302.66,-111.48 302.66,-135.96 302.66,-135.96 302.66,-141.96 296.66,-147.96 290.66,-147.96"/>
<text xml:space="preserve" text-anchor="middle" x="230.32" y="-127.62" font-family="sans-serif" font-size="13.00">provider</text>
<text xml:space="preserve" text-anchor="middle" x="230.32" y="-112.02" font-family="sans-serif" font-size="13.00">供应商/ChatClient工厂</text>
</g>
<!-- workflow&#45;&gt;provider -->
<g id="edge3" class="edge">
<title>workflow&#45;&gt;provider</title>
<path fill="none" stroke="#555555" d="M412.03,-451.69C304.65,-443.49 82.24,-408.32 8.32,-258.44 -1.21,-239.12 -3.89,-227.72 8.32,-209.96 39.18,-165.06 97.21,-143.8 146.21,-133.74"/>
<polygon fill="#555555" stroke="#555555" points="146.83,-137.18 155.99,-131.87 145.51,-130.31 146.83,-137.18"/>
<text xml:space="preserve" text-anchor="middle" x="47.48" y="-286.44" font-family="sans-serif" font-size="10.00">LLM节点</text>
</g>
<!-- tool -->
<g id="node7" class="node">
<title>tool</title>
<path fill="#dceefb" stroke="black" d="M608.71,-147.96C608.71,-147.96 473.92,-147.96 473.92,-147.96 467.92,-147.96 461.92,-141.96 461.92,-135.96 461.92,-135.96 461.92,-111.48 461.92,-111.48 461.92,-105.48 467.92,-99.48 473.92,-99.48 473.92,-99.48 608.71,-99.48 608.71,-99.48 614.71,-99.48 620.71,-105.48 620.71,-111.48 620.71,-111.48 620.71,-135.96 620.71,-135.96 620.71,-141.96 614.71,-147.96 608.71,-147.96"/>
<text xml:space="preserve" text-anchor="middle" x="541.32" y="-127.62" font-family="sans-serif" font-size="13.00">tool</text>
<text xml:space="preserve" text-anchor="middle" x="541.32" y="-112.02" font-family="sans-serif" font-size="13.00">内置/OpenAPI/MCP工具</text>
</g>
<!-- workflow&#45;&gt;tool -->
<g id="edge5" class="edge">
<title>workflow&#45;&gt;tool</title>
<path fill="none" stroke="#555555" d="M519,-430.51C575.12,-399.68 665.45,-339.92 703.32,-258.44 712.4,-238.9 714.45,-228.41 703.32,-209.96 687.08,-183.06 659.22,-164.23 631.14,-151.24"/>
<polygon fill="#555555" stroke="#555555" points="632.76,-148.13 622.2,-147.32 629.95,-154.54 632.76,-148.13"/>
<text xml:space="preserve" text-anchor="middle" x="717.12" y="-286.44" font-family="sans-serif" font-size="10.00">HTTP/代码节点</text>
</g>
<!-- usage -->
<g id="node8" class="node">
<title>usage</title>
<path fill="#dceefb" stroke="black" d="M771.62,-147.96C771.62,-147.96 717.01,-147.96 717.01,-147.96 711.01,-147.96 705.01,-141.96 705.01,-135.96 705.01,-135.96 705.01,-111.48 705.01,-111.48 705.01,-105.48 711.01,-99.48 717.01,-99.48 717.01,-99.48 771.62,-99.48 771.62,-99.48 777.62,-99.48 783.62,-105.48 783.62,-111.48 783.62,-111.48 783.62,-135.96 783.62,-135.96 783.62,-141.96 777.62,-147.96 771.62,-147.96"/>
<text xml:space="preserve" text-anchor="middle" x="744.32" y="-127.62" font-family="sans-serif" font-size="13.00">usage</text>
<text xml:space="preserve" text-anchor="middle" x="744.32" y="-112.02" font-family="sans-serif" font-size="13.00">用量/配额</text>
</g>
<!-- workflow&#45;&gt;usage -->
<g id="edge6" class="edge">
<title>workflow&#45;&gt;usage</title>
<path fill="none" stroke="#2b7a2b" d="M530.44,-442.42C601.08,-424.68 714.92,-383.3 756.32,-295.44 776.83,-251.91 766.58,-195.12 756.29,-159.28"/>
<polygon fill="#2b7a2b" stroke="#2b7a2b" points="759.68,-158.41 753.42,-149.87 752.99,-160.45 759.68,-158.41"/>
<text xml:space="preserve" text-anchor="middle" x="775.9" y="-286.44" font-family="sans-serif" font-size="10.00" fill="#2b7a2b">配额检查</text>
</g>
<!-- conversation&#45;&gt;app -->
<g id="edge7" class="edge">
<title>conversation&#45;&gt;app</title>
<path fill="none" stroke="#555555" d="M377.16,-320.01C390.57,-308.31 407.52,-294.39 423.82,-283.44 433.89,-276.67 445.01,-270.09 455.91,-264.08"/>
<polygon fill="#555555" stroke="#555555" points="457.35,-267.27 464.49,-259.44 454.03,-261.12 457.35,-267.27"/>
<text xml:space="preserve" text-anchor="middle" x="442.57" y="-286.44" font-family="sans-serif" font-size="10.00">读应用配置</text>
</g>
<!-- conversation&#45;&gt;knowledge -->
<g id="edge9" class="edge">
<title>conversation&#45;&gt;knowledge</title>
<path fill="none" stroke="#555555" d="M284.39,-333.81C247.29,-326.57 201.13,-314.59 163.2,-295.44 148.22,-287.88 133.52,-276.86 121.22,-266.3"/>
<polygon fill="#555555" stroke="#555555" points="123.66,-263.78 113.86,-259.76 119.01,-269.02 123.66,-263.78"/>
<text xml:space="preserve" text-anchor="middle" x="181.26" y="-286.44" font-family="sans-serif" font-size="10.00">RAG检索</text>
</g>
<!-- conversation&#45;&gt;provider -->
<g id="edge8" class="edge">
<title>conversation&#45;&gt;provider</title>
<path fill="none" stroke="#555555" d="M284.54,-320.77C273.3,-314.19 262.85,-305.88 255.32,-295.44 226.52,-255.55 224.38,-196.58 226.55,-159.43"/>
<polygon fill="#555555" stroke="#555555" points="230.02,-159.93 227.27,-149.7 223.04,-159.41 230.02,-159.93"/>
<text xml:space="preserve" text-anchor="middle" x="250.55" y="-231.2" font-family="sans-serif" font-size="10.00">调LLM</text>
</g>
<!-- conversation&#45;&gt;tool -->
<g id="edge10" class="edge">
<title>conversation&#45;&gt;tool</title>
<path fill="none" stroke="#555555" d="M345.21,-319.99C337.39,-283.67 328.74,-214.11 364.32,-172.96 367.53,-169.24 408.84,-157.88 450.74,-147.12"/>
<polygon fill="#555555" stroke="#555555" points="451.38,-150.57 460.2,-144.71 449.64,-143.79 451.38,-150.57"/>
<text xml:space="preserve" text-anchor="middle" x="378.3" y="-231.2" font-family="sans-serif" font-size="10.00">Function Calling</text>
</g>
<!-- conversation&#45;&gt;usage -->
<g id="edge11" class="edge">
<title>conversation&#45;&gt;usage</title>
<path fill="none" stroke="#2b7a2b" d="M418.32,-329.06C470.66,-315.76 543.9,-292.88 601.32,-258.44 647.21,-230.91 690.75,-186.66 717.47,-156.67"/>
<polygon fill="#2b7a2b" stroke="#2b7a2b" points="719.9,-159.2 723.87,-149.37 714.64,-154.58 719.9,-159.2"/>
<text xml:space="preserve" text-anchor="middle" x="677.93" y="-231.2" font-family="sans-serif" font-size="10.00" fill="#2b7a2b">配额检查</text>
</g>
<!-- app&#45;&gt;knowledge -->
<g id="edge14" class="edge">
<title>app&#45;&gt;knowledge</title>
<path fill="none" stroke="#555555" stroke-dasharray="1,5" d="M453.26,-258.92C401.75,-276.82 325.93,-296.25 259.07,-286.23 226.22,-281.31 190.94,-271.31 161.11,-261.38"/>
<polygon fill="#555555" stroke="#555555" points="162.4,-258.13 151.81,-258.23 160.15,-264.76 162.4,-258.13"/>
<text xml:space="preserve" text-anchor="middle" x="285.32" y="-286.44" font-family="sans-serif" font-size="10.00">校验知识库引用</text>
</g>
<!-- app&#45;&gt;provider -->
<g id="edge13" class="edge">
<title>app&#45;&gt;provider</title>
<path fill="none" stroke="#555555" stroke-dasharray="1,5" d="M452.34,-209.53C408.28,-192.7 348.96,-170.04 302.71,-152.37"/>
<polygon fill="#555555" stroke="#555555" points="304.16,-149.18 293.57,-148.88 301.67,-155.72 304.16,-149.18"/>
<text xml:space="preserve" text-anchor="middle" x="403.33" y="-175.96" font-family="sans-serif" font-size="10.00">校验模型引用</text>
</g>
<!-- app&#45;&gt;tool -->
<g id="edge15" class="edge">
<title>app&#45;&gt;tool</title>
<path fill="none" stroke="#555555" stroke-dasharray="1,5" d="M520.18,-209.66C523.86,-194.88 528.66,-175.56 532.77,-159.08"/>
<polygon fill="#555555" stroke="#555555" points="536.09,-160.23 535.1,-149.68 529.29,-158.54 536.09,-160.23"/>
<text xml:space="preserve" text-anchor="middle" x="551.13" y="-175.96" font-family="sans-serif" font-size="10.00">校验工具引用</text>
</g>
<!-- knowledge&#45;&gt;provider -->
<g id="edge12" class="edge">
<title>knowledge&#45;&gt;provider</title>
<path fill="none" stroke="#555555" d="M113.03,-209.55C125.11,-197.99 140.31,-184.18 154.88,-172.96 163.12,-166.62 172.19,-160.31 181.11,-154.43"/>
<polygon fill="#555555" stroke="#555555" points="182.9,-157.44 189.4,-149.07 179.1,-151.56 182.9,-157.44"/>
<text xml:space="preserve" text-anchor="middle" x="177.1" y="-175.96" font-family="sans-serif" font-size="10.00">embedding</text>
</g>
<!-- identity -->
<g id="node5" class="node">
<title>identity</title>
<path fill="#dceefb" stroke="black" d="M409.62,-147.96C409.62,-147.96 355.01,-147.96 355.01,-147.96 349.01,-147.96 343.01,-141.96 343.01,-135.96 343.01,-135.96 343.01,-111.48 343.01,-111.48 343.01,-105.48 349.01,-99.48 355.01,-99.48 355.01,-99.48 409.62,-99.48 409.62,-99.48 415.62,-99.48 421.62,-105.48 421.62,-111.48 421.62,-111.48 421.62,-135.96 421.62,-135.96 421.62,-141.96 415.62,-147.96 409.62,-147.96"/>
<text xml:space="preserve" text-anchor="middle" x="382.32" y="-127.62" font-family="sans-serif" font-size="13.00">identity</text>
<text xml:space="preserve" text-anchor="middle" x="382.32" y="-112.02" font-family="sans-serif" font-size="13.00">用户/角色</text>
</g>
<!-- base -->
<g id="node9" class="node">
<title>base</title>
<path fill="#eeeeee" stroke="black" stroke-dasharray="5,2" d="M479.57,-48.48C479.57,-48.48 331.07,-48.48 331.07,-48.48 325.07,-48.48 319.07,-42.48 319.07,-36.48 319.07,-36.48 319.07,-12 319.07,-12 319.07,-6 325.07,0 331.07,0 331.07,0 479.57,0 479.57,0 485.57,0 491.57,-6 491.57,-12 491.57,-12 491.57,-36.48 491.57,-36.48 491.57,-42.48 485.57,-48.48 479.57,-48.48"/>
<text xml:space="preserve" text-anchor="middle" x="405.32" y="-28.14" font-family="sans-serif" font-size="13.00">common + infra</text>
<text xml:space="preserve" text-anchor="middle" x="405.32" y="-12.54" font-family="sans-serif" font-size="13.00">（被所有模块依赖，连线省略）</text>
</g>
<!-- identity&#45;&gt;base -->
<!-- provider&#45;&gt;usage -->
<g id="edge16" class="edge">
<title>provider&#45;&gt;usage</title>
<path fill="none" stroke="#888888" stroke-dasharray="5,2" d="M302.34,-148.37C361.79,-165.84 448.53,-184.71 525.03,-175.75 583.96,-168.86 650.03,-151.87 694.09,-139.17"/>
<polygon fill="#888888" stroke="#888888" points="703.63,-136.38 695.29,-143.51 700,-137.44 694.03,-139.19 694.03,-139.19 694.03,-139.19 700,-137.44 692.77,-134.87 703.63,-136.38"/>
<text xml:space="preserve" text-anchor="middle" x="490.32" y="-175.96" font-family="sans-serif" font-size="10.00" fill="#888888">TokenUsedEvent</text>
</g>
<!-- tool&#45;&gt;usage -->
<g id="edge17" class="edge">
<title>tool&#45;&gt;usage</title>
<path fill="none" stroke="#888888" stroke-dasharray="5,2" d="M620.97,-123.72C645.37,-123.72 671.54,-123.72 693.47,-123.72"/>
<polygon fill="#888888" stroke="#888888" points="703.3,-123.72 693.3,-128.22 699.52,-123.72 693.3,-123.72 693.3,-123.72 693.3,-123.72 699.52,-123.72 693.3,-119.22 703.3,-123.72"/>
<text xml:space="preserve" text-anchor="middle" x="662.86" y="-129.72" font-family="sans-serif" font-size="10.00" fill="#888888">调用日志事件</text>
</g>
<!-- usage&#45;&gt;base -->
</g>
</svg>

